<svg xmlns="http://www.w3.org/2000/svg" style="display: none;">
    <!-- icon-menu -->
    <symbol xmlns="http://www.w3.org/2000/svg" viewBox="0 0 24 24" fill="none" id="icon-menu">
        <path fill-rule="evenodd" clip-rule="evenodd" d="M22.75 12.3436C22.75 11.739 22.2842 11.2489 21.7097 11.2489H2.29032C1.71577 11.2489 1.25 11.739 1.25 12.3436C1.25 12.9481 1.71577 13.4382 2.29032 13.4382H21.7097C22.2842 13.4382 22.75 12.9481 22.75 12.3436Z" fill="currentColor"/>
        <path fill-rule="evenodd" clip-rule="evenodd" d="M22.75 5.04583C22.75 4.44127 22.2842 3.95117 21.7097 3.95117H2.29032C1.71577 3.95117 1.25 4.44127 1.25 5.04583C1.25 5.6504 1.71577 6.14049 2.29032 6.14049H21.7097C22.2842 6.14049 22.75 5.6504 22.75 5.04583Z" fill="currentColor"/>
        <path fill-rule="evenodd" clip-rule="evenodd" d="M22.75 19.6413C22.75 19.0368 22.2842 18.5467 21.7097 18.5467H2.29032C1.71577 18.5467 1.25 19.0368 1.25 19.6413C1.25 20.2459 1.71577 20.736 2.29032 20.736H21.7097C22.2842 20.736 22.75 20.2459 22.75 19.6413Z" fill="currentColor"/>
    </symbol>
    <!-- icon-search -->
    <symbol xmlns="http://www.w3.org/2000/svg" viewBox="0 0 24 24" fill="none" id="icon-search">
        <path fill-rule="evenodd" clip-rule="evenodd" d="M14.3849 15.6485C11.7346 17.6844 7.8552 17.5242 5.39842 15.1678C2.76238 12.6395 2.76238 8.54027 5.39842 6.01196C8.03445 3.48365 12.3083 3.48365 14.9444 6.01196C17.4011 8.36834 17.5682 12.0892 15.4456 14.6312L20.6012 19.5761C20.8941 19.857 20.8941 20.3125 20.6012 20.5934C20.3083 20.8743 19.8334 20.8743 19.5405 20.5934L14.3849 15.6485ZM6.45908 14.1505C4.40882 12.184 4.40882 8.99574 6.45908 7.02927C8.50933 5.06281 11.8334 5.06281 13.8837 7.02927C15.9324 8.99429 15.9339 12.1793 13.8882 14.1461C13.8867 14.1476 13.8852 14.149 13.8837 14.1504C13.8822 14.1519 13.8807 14.1533 13.8792 14.1548C11.8286 16.1169 8.50783 16.1155 6.45908 14.1505Z" fill="currentColor"/>
    </symbol>
    <!-- title-link-arrow -->
    <symbol xmlns="http://www.w3.org/2000/svg" viewBox="0 0 39 40" fill="none" id="title-link-arrow">
        <path d="M38.61 0.849999H35.1H17.16V4.75H31.98L0.39 36.73L3.12 39.46L35.1 7.09V22.3H39V0.849999H38.61Z" fill="#6FBA1F" fill-opacity="0.3"/>
    </symbol>
    <!-- icon-history-eye -->
    <symbol xmlns="http://www.w3.org/2000/svg" viewBox="0 0 51 30" fill="none" id="icon-history-eye">
        <path d="M25.52 0.349999C24.302 0.349999 22.968 0.562666 21.518 0.987998C20.2033 1.35533 18.7823 1.90633 17.255 2.641C15.9017 3.279 14.4807 4.05233 12.992 4.961C11.6967 5.773 10.353 6.672 8.961 7.658C7.78167 8.48933 6.59267 9.38833 5.394 10.355C4.44667 11.109 3.49933 11.8823 2.552 12.675C1.89467 13.255 1.26633 13.806 0.667 14.328L0 14.966C1.29533 15.5653 2.494 16.329 3.596 17.257C6.10933 19.3837 8.178 21.0463 9.802 22.245C12.6247 24.3523 15.196 25.986 17.516 27.146C20.4933 28.6153 23.1033 29.35 25.346 29.35C27.434 29.35 29.7927 28.7217 32.422 27.465C34.51 26.4597 36.83 25.029 39.382 23.173C40.8513 22.0903 42.8427 20.5147 45.356 18.446L45.878 18.011C47.3473 16.8317 48.923 15.8167 50.605 14.966C49.503 13.8833 48.0917 12.617 46.371 11.167C42.9103 8.28633 39.6333 5.947 36.54 4.149C32.2093 1.61633 28.536 0.349999 25.52 0.349999ZM25.346 26.044C23.838 26.044 22.388 25.754 20.996 25.174C19.6233 24.594 18.4053 23.782 17.342 22.738C16.2787 21.6747 15.457 20.447 14.877 19.055C14.3163 17.663 14.036 16.2227 14.036 14.734C14.036 13.226 14.3163 11.7857 14.877 10.413C15.457 9.021 16.2787 7.79333 17.342 6.73C18.4247 5.66666 19.6523 4.85467 21.025 4.294C22.417 3.714 23.8573 3.424 25.346 3.424C26.854 3.424 28.304 3.714 29.696 4.294C31.088 4.874 32.306 5.69567 33.35 6.759C34.4133 7.82233 35.2253 9.05 35.786 10.442C36.366 11.8147 36.656 13.255 36.656 14.763C36.656 16.8123 36.134 18.707 35.09 20.447C34.104 22.1483 32.7603 23.5017 31.059 24.507C29.2997 25.5317 27.3953 26.044 25.346 26.044ZM33.089 9.456C33.1083 9.63 33.1083 9.804 33.089 9.978C33.089 10.674 32.915 11.3217 32.567 11.921C32.2383 12.501 31.784 12.9747 31.204 13.342C30.624 13.69 29.986 13.8833 29.29 13.922C28.594 13.9413 27.9463 13.7867 27.347 13.458C26.7477 13.1293 26.2547 12.6847 25.868 12.124C25.5007 11.544 25.2977 10.906 25.259 10.21C25.2203 9.514 25.3557 8.86633 25.665 8.267C25.9743 7.64833 26.4093 7.14567 26.97 6.759C27.5307 6.37233 28.159 6.15 28.855 6.092C27.4243 5.53133 25.955 5.32833 24.447 5.483C22.9583 5.61833 21.576 6.092 20.3 6.904C19.024 7.716 17.9993 8.789 17.226 10.123C16.472 11.4377 16.0563 12.849 15.979 14.357C15.921 15.865 16.1917 17.3053 16.791 18.678C17.4097 20.0507 18.3183 21.2203 19.517 22.187C20.7157 23.1343 22.0593 23.753 23.548 24.043C25.0367 24.333 26.506 24.275 27.956 23.869C29.406 23.4437 30.682 22.709 31.784 21.665C32.9053 20.621 33.7173 19.3933 34.22 17.982C34.7227 16.5513 34.8773 15.0917 34.684 13.603C34.4907 12.095 33.959 10.7127 33.089 9.456ZM21.518 20.563C20.5513 20.0217 19.778 19.2773 19.198 18.33C18.618 17.3827 18.299 16.3483 18.241 15.227C18.2023 14.1057 18.4247 13.052 18.908 12.066C19.4107 11.0607 20.126 10.2487 21.054 9.63C20.938 9.804 20.8413 9.96833 20.764 10.123C20.068 11.341 19.778 12.6557 19.894 14.067C20.0293 15.459 20.5417 16.6963 21.431 17.779C22.3203 18.8617 23.4417 19.5963 24.795 19.983C26.1483 20.3697 27.492 20.3407 28.826 19.896C27.8013 20.766 26.622 21.2687 25.288 21.404C23.954 21.5393 22.6973 21.2783 21.518 20.621V20.563Z" fill="#6FBA1F" fill-opacity="0.3"/>
    </symbol>
    <!-- icon-phone -->
    <symbol xmlns="http://www.w3.org/2000/svg" viewBox="0 0 18 18" fill="none" id="icon-phone">
        <path fill-rule="evenodd" clip-rule="evenodd" d="M2.34047 6.85617C4.12779 10.7481 7.30827 13.8422 11.262 15.5188L11.2745 15.5241L12.0383 15.8646C13.011 16.2979 14.1542 15.9901 14.7778 15.1271L16.0522 13.3633C16.13 13.2556 16.1099 13.1058 16.0065 13.0223L13.7818 11.2275C13.6712 11.1383 13.5085 11.1591 13.4239 11.2732L12.5581 12.4416C12.3478 12.7254 11.968 12.824 11.6463 12.6784C8.68987 11.3404 6.31416 8.96473 4.97622 6.00832C4.83061 5.68656 4.92921 5.30681 5.21296 5.09653L6.38134 4.23067C6.4955 4.14606 6.51628 3.98343 6.42706 3.87284L4.63202 1.6478C4.54859 1.54438 4.39884 1.52429 4.29111 1.60207L2.51782 2.88222C1.64903 3.50941 1.34307 4.66226 1.78654 5.63771L2.33988 6.85487C2.34008 6.8553 2.34027 6.85574 2.34047 6.85617ZM10.6701 16.8971C6.3741 15.0735 2.91874 11.7105 0.976696 7.48076L0.975526 7.47821L0.421024 6.2585C-0.318076 4.63275 0.191852 2.71134 1.63983 1.66603L3.41313 0.385867C4.16725 -0.158539 5.21548 -0.0179346 5.79947 0.705959L7.59451 2.931C8.21907 3.70517 8.0736 4.84357 7.27444 5.43581L6.60494 5.93196C7.73585 8.12636 9.52824 9.91874 11.7226 11.0497L12.2188 10.3801C12.811 9.58098 13.9494 9.43552 14.7236 10.0601L16.9483 11.8549C17.6724 12.439 17.8129 13.4877 17.268 14.2418L15.9936 16.0055C14.9543 17.444 13.0489 17.957 11.4279 17.2347L10.6701 16.8971Z" fill="currentColor"/>
    </symbol>
    <!-- icon-chevron-down -->
    <symbol xmlns="http://www.w3.org/2000/svg" viewBox="0 0 16 16" fill="none" id="icon-chevron-down">
        <path fill-rule="evenodd" d="M1.646 4.646a.5.5 0 0 1 .708 0L8 10.293l5.646-5.647a.5.5 0 0 1 .708.708l-6 6a.5.5 0 0 1-.708 0l-6-6a.5.5 0 0 1 0-.708" fill="currentColor"/>
    </symbol>
    <!-- social-facebook -->
    <symbol xmlns="http://www.w3.org/2000/svg" viewBox="0 0 12 20" fill="none" id="social-facebook">
        <path fill-rule="evenodd" clip-rule="evenodd" d="M4.48769 1.78769C5.47225 0.803123 6.80761 0.25 8.2 0.25H10.9C11.3142 0.25 11.65 0.585786 11.65 1V4.6C11.65 5.01421 11.3142 5.35 10.9 5.35H8.2C8.16022 5.35 8.12206 5.3658 8.09393 5.39393C8.0658 5.42206 8.05 5.46022 8.05 5.5V7.45H10.9C11.131 7.45 11.349 7.5564 11.4912 7.73844C11.6333 7.92048 11.6836 8.15785 11.6276 8.3819L10.7276 11.9819C10.6441 12.3158 10.3442 12.55 10 12.55H8.05V19C8.05 19.4142 7.71421 19.75 7.3 19.75H3.7C3.28579 19.75 2.95 19.4142 2.95 19V12.55H1C0.585786 12.55 0.25 12.2142 0.25 11.8V8.2C0.25 7.78579 0.585786 7.45 1 7.45H2.95V5.5C2.95 4.10761 3.50312 2.77226 4.48769 1.78769ZM8.2 1.75C7.20544 1.75 6.25161 2.14509 5.54835 2.84835C4.84509 3.55161 4.45 4.50544 4.45 5.5V8.2C4.45 8.61421 4.11421 8.95 3.7 8.95H1.75V11.05H3.7C4.11421 11.05 4.45 11.3858 4.45 11.8V18.25H6.55V11.8C6.55 11.3858 6.88579 11.05 7.3 11.05H9.41442L9.93942 8.95H7.3C6.88579 8.95 6.55 8.61421 6.55 8.2V5.5C6.55 5.06239 6.72384 4.64271 7.03327 4.33327C7.34271 4.02384 7.76239 3.85 8.2 3.85H10.15V1.75H8.2Z" fill="currentColor"/>
    </symbol>
    <!-- social-insta -->
    <symbol xmlns="http://www.w3.org/2000/svg" viewBox="0 0 20 20" fill="none" id="social-insta">
        <path d="M14 5.00005C14 4.44776 14.4477 4.00005 15 4.00005C15.5523 4.00005 16 4.44776 16 5.00005C16 5.55233 15.5523 6.00005 15 6.00005C14.4477 6.00005 14 5.55233 14 5.00005Z" fill="currentColor"/>
        <path fill-rule="evenodd" clip-rule="evenodd" d="M10 5.25005C7.37665 5.25005 5.25 7.37669 5.25 10C5.25 12.6234 7.37665 14.75 10 14.75C12.6234 14.75 14.75 12.6234 14.75 10C14.75 7.37669 12.6234 5.25005 10 5.25005ZM6.75 10C6.75 8.20512 8.20507 6.75005 10 6.75005C11.7949 6.75005 13.25 8.20512 13.25 10C13.25 11.795 11.7949 13.25 10 13.25C8.20507 13.25 6.75 11.795 6.75 10Z" fill="currentColor"/>
        <path fill-rule="evenodd" clip-rule="evenodd" d="M15.2583 0.833061C11.7917 0.44562 8.20834 0.44562 4.74177 0.833061C2.72971 1.05794 1.10538 2.64295 0.868826 4.66548C0.454288 8.20978 0.454288 11.7903 0.868826 15.3346C1.10538 17.3571 2.72971 18.9422 4.74177 19.167C8.20835 19.5545 11.7917 19.5545 15.2583 19.167C17.2703 18.9422 18.8946 17.3571 19.1312 15.3346C19.5457 11.7903 19.5457 8.20978 19.1312 4.66548C18.8946 2.64295 17.2703 1.05794 15.2583 0.833061ZM4.90838 2.32378C8.26423 1.94871 11.7358 1.94871 15.0916 2.32378C16.4218 2.47244 17.4872 3.52205 17.6414 4.83973C18.0424 8.26825 18.0424 11.7318 17.6414 15.1604C17.4872 16.478 16.4218 17.5277 15.0916 17.6763C11.7358 18.0514 8.26423 18.0514 4.90838 17.6763C3.57827 17.5277 2.51278 16.478 2.35867 15.1604C1.95767 11.7318 1.95767 8.26825 2.35867 4.83973C2.51278 3.52205 3.57827 2.47244 4.90838 2.32378Z" fill="currentColor"/>
    </symbol>
    <!-- social-twitter -->
    <symbol xmlns="http://www.w3.org/2000/svg" viewBox="0 0 22 19" fill="none" id="social-twitter">
        <path fill-rule="evenodd" clip-rule="evenodd" d="M14.0215 0.343523C14.5298 0.256441 15.0991 0.227365 15.6349 0.318007C16.5918 0.47989 17.4756 0.924618 18.1743 1.59138C18.631 1.60171 19.0798 1.51173 19.4769 1.38347C19.813 1.27492 20.097 1.14385 20.2959 1.04021C20.3948 0.988681 20.4712 0.944723 20.5209 0.914963C20.5457 0.900107 20.5638 0.888862 20.5745 0.882071L20.584 0.87601C20.8808 0.678282 21.276 0.716765 21.5289 0.968271C21.7818 1.21984 21.8226 1.61476 21.6263 1.91266C21.4186 2.22795 21.1302 2.79002 20.8072 3.41978C20.7564 3.5188 20.7047 3.61949 20.6524 3.72116C20.4671 4.08113 20.2771 4.44494 20.1 4.75707C19.9888 4.95306 19.8699 5.15204 19.75 5.32398V5.59775C19.7576 6.60338 19.6423 7.60377 19.4082 8.57698C19.2609 9.18933 19.0666 9.79092 18.8264 10.3763C18.204 11.893 17.2856 13.2704 16.1249 14.4282C14.9641 15.5859 13.5843 16.5008 12.0661 17.1193C10.5492 17.7373 8.92443 18.0471 7.28658 18.0306C4.91227 18.0327 2.5879 17.3486 0.593179 16.0607C0.299378 15.871 0.175679 15.5035 0.295015 15.1747C0.414352 14.846 0.745045 14.6434 1.09212 14.6863C1.39248 14.7235 1.69489 14.7416 1.99754 14.7407C3.08499 14.7376 4.15173 14.4973 5.12559 14.0447C4.81604 13.9038 4.52051 13.73 4.24435 13.5253C3.43264 12.9234 2.82873 12.0834 2.51666 11.1223C2.43556 10.8725 2.491 10.5985 2.66282 10.3999C2.66589 10.3964 2.669 10.3929 2.67214 10.3894C2.48861 10.2257 2.31688 10.0475 2.15878 9.8559C1.44747 8.9937 1.05579 7.91226 1.05001 6.79453L1.04999 6.79065L1.05 6.74065C1.05 6.47478 1.19075 6.22879 1.41995 6.09407C1.47806 6.05992 1.53964 6.03421 1.60299 6.01697C1.26466 5.34189 1.08871 4.59644 1.09 3.84018C1.0896 2.98342 1.3134 2.14145 1.73916 1.39795C1.86207 1.18331 2.0829 1.04307 2.32943 1.0231C2.57595 1.00312 2.81648 1.10598 2.97234 1.29802C3.9349 2.48403 5.13619 3.45429 6.49817 4.14576C7.19831 4.50121 7.93286 4.77891 8.68866 4.97534C9.1124 5.08547 9.54281 5.17006 9.97758 5.22849C9.95843 4.50523 10.1012 3.78236 10.401 3.11443C10.8407 2.1346 11.5931 1.32843 12.5404 0.822334C12.9415 0.608005 13.474 0.437294 14.0215 0.343523ZM2.74327 7.89102C2.87292 8.25591 3.06579 8.59823 3.31584 8.90133C3.80717 9.49687 4.48911 9.90443 5.24633 10.0551C5.58362 10.1222 5.83205 10.41 5.84908 10.7535C5.8661 11.097 5.64735 11.408 5.31836 11.5082C5.04586 11.5911 4.76668 11.6489 4.48433 11.681C4.67091 11.9215 4.89039 12.1369 5.1378 12.3204C5.69898 12.7365 6.37593 12.9673 7.07444 12.9808C7.39135 12.9869 7.67022 13.1916 7.77105 13.4921C7.87187 13.7926 7.77289 14.124 7.52378 14.3201C6.47461 15.1456 5.26141 15.7213 3.97586 16.0151C5.04135 16.3564 6.15879 16.532 7.28908 16.5306L7.29779 16.5306C8.73785 16.5456 10.1664 16.2735 11.5001 15.7302C12.8339 15.1868 14.0459 14.3832 15.0656 13.3661C16.0852 12.3491 16.8919 11.1391 17.4387 9.80681C17.6497 9.29258 17.8204 8.76412 17.9498 8.22621C18.1556 7.37044 18.2569 6.49078 18.25 5.60651L18.25 5.60065V5.07065C18.25 4.88879 18.3161 4.71314 18.4359 4.57636C18.5052 4.49732 18.6264 4.31476 18.7954 4.01686C18.956 3.73374 19.1338 3.39383 19.3187 3.03465C19.3299 3.01293 19.3411 2.99109 19.3524 2.96915C18.8728 3.0733 18.3292 3.12789 17.7594 3.06631C17.579 3.0468 17.4117 2.96252 17.2886 2.82908C16.7858 2.28374 16.1161 1.92073 15.3847 1.79699C15.0602 1.74209 14.6678 1.75465 14.2747 1.82199C13.8476 1.89515 13.4759 2.02317 13.2472 2.14534C12.5929 2.49491 12.0732 3.05175 11.7695 3.72854C11.4658 4.40533 11.3953 5.16377 11.5691 5.88493C11.6245 6.11484 11.5683 6.35742 11.4173 6.53945C11.2663 6.72148 11.0383 6.82164 10.8021 6.80969C9.95869 6.76703 9.12421 6.63838 8.31134 6.42711C7.45144 6.20362 6.61571 5.88767 5.81913 5.48326C4.64635 4.88785 3.5783 4.11075 2.65346 3.18306C2.61127 3.39868 2.58985 3.6187 2.59 3.84015L2.59 3.84207C2.58895 4.39279 2.7241 4.93522 2.98341 5.42107C3.24272 5.90692 3.61814 6.32111 4.07626 6.62676C4.35428 6.81226 4.47601 7.15934 4.37475 7.47786C4.2735 7.79638 3.9737 8.00946 3.6396 8.00037C3.33701 7.99214 3.03694 7.95533 2.74327 7.89102Z" fill="currentColor"/>
    </symbol>
    <!-- social-vk -->
    <symbol xmlns="http://www.w3.org/2000/svg" viewBox="0 0 24 16" fill="none" id="social-vk">
        <path fill-rule="evenodd" clip-rule="evenodd" d="M23.405 12.865C22.8611 11.7695 22.1444 10.7688 21.2825 9.90128C20.9892 9.56032 20.6453 9.22383 20.3768 8.96116L20.3393 8.92446C20.2008 8.78895 20.0864 8.67644 19.9928 8.5795C21.1713 6.94074 22.18 5.18595 23.003 3.34222L23.0362 3.26783L23.0595 3.18976C23.1676 2.82687 23.2922 2.1368 22.8515 1.51317C22.396 0.868589 21.6666 0.752342 21.1782 0.752342H18.9311C18.4627 0.730866 17.9988 0.857507 17.6058 1.11498C17.2098 1.37439 16.9069 1.75278 16.7402 2.1951C16.2563 3.34779 15.6508 4.4442 14.9347 5.46598V2.83269C14.9347 2.4923 14.9027 1.92289 14.5382 1.44229C14.1018 0.866854 13.4707 0.752342 13.0326 0.752342H9.46708C9.00771 0.741718 8.56094 0.905974 8.2176 1.21259C7.866 1.52659 7.65052 1.96521 7.61687 2.43543L7.61369 2.47997V2.52463C7.61369 3.01011 7.80606 3.36822 7.95975 3.59344C8.02856 3.69427 8.10216 3.78606 8.14865 3.84403L8.15938 3.85741C8.20895 3.91923 8.24204 3.96049 8.27525 4.00566C8.3626 4.12448 8.48824 4.30768 8.52379 4.78174V6.2547C7.9091 5.24423 7.26066 3.89957 6.77276 2.46344L6.76527 2.4414L6.75697 2.41965C6.63532 2.10103 6.4402 1.63743 6.04941 1.28266C5.59288 0.868212 5.0529 0.752342 4.56182 0.752342H2.28187C1.78506 0.752342 1.18613 0.868566 0.739237 1.33999C0.299773 1.80358 0.25 2.35907 0.25 2.65442V2.78755L0.278039 2.91769C0.909544 5.84881 2.21076 8.59368 4.07946 10.9377C4.92668 12.2737 6.07468 13.3936 7.43213 14.2075C8.81124 15.0345 10.3671 15.5219 11.9715 15.6297L12.0133 15.6325H12.0553C12.7811 15.6325 13.5378 15.5699 14.1068 15.1907C14.8744 14.6792 14.9347 13.8936 14.9347 13.5021V12.3642C15.1317 12.5234 15.3761 12.7378 15.6753 13.0259C16.037 13.3879 16.325 13.7016 16.572 13.9754L16.7038 14.122L16.7046 14.1228C16.8964 14.3364 17.0852 14.5467 17.2571 14.7195C17.4732 14.9367 17.7396 15.1761 18.0745 15.3529C18.4371 15.5444 18.8177 15.631 19.222 15.631H21.5035C21.9841 15.631 22.6735 15.5173 23.1582 14.9554C23.6864 14.343 23.6461 13.5924 23.48 13.053L23.4501 12.956L23.405 12.865ZM17.6857 12.9706C17.4289 12.6859 17.1192 12.3484 16.7278 11.9571L16.7246 11.9539C15.3685 10.6464 14.7348 10.4186 14.2868 10.4186C14.0485 10.4186 13.7848 10.4454 13.6137 10.6585C13.5329 10.7591 13.4905 10.8805 13.4667 11.007C13.4429 11.1333 13.4347 11.2816 13.4347 11.4505V13.5021C13.4347 13.7569 13.3928 13.8639 13.275 13.9425C13.118 14.0471 12.7825 14.1319 12.0637 14.1325C10.6993 14.0395 9.37641 13.6244 8.20349 12.9211C7.02817 12.2164 6.03709 11.2425 5.31187 10.0797L5.30398 10.0671L5.29464 10.0554C3.55337 7.88813 2.34003 5.34571 1.7503 2.6291C1.7535 2.49814 1.78187 2.42045 1.82784 2.37195C1.87521 2.32198 1.98999 2.25234 2.28187 2.25234H4.56182C4.81544 2.25234 4.9467 2.30751 5.04117 2.39327C5.14827 2.4905 5.24116 2.65561 5.35401 2.95042C5.91362 4.5964 6.67038 6.13568 7.387 7.26751C7.74518 7.83323 8.09769 8.30409 8.41529 8.63685C8.57383 8.80295 8.72932 8.94063 8.8777 9.03848C9.02132 9.13319 9.18414 9.20789 9.35158 9.20789C9.43994 9.20789 9.54328 9.1988 9.64279 9.15475C9.74983 9.10735 9.83291 9.02837 9.89158 8.92253C9.99536 8.7353 10.0238 8.45798 10.0238 8.0947V4.73099L10.0233 4.7231C9.97146 3.90476 9.72439 3.44443 9.48381 3.11718C9.43108 3.04546 9.37909 2.98068 9.33359 2.92399L9.32113 2.90846C9.27117 2.84616 9.23142 2.79582 9.19876 2.74795C9.13891 2.66024 9.11571 2.59909 9.11381 2.53356C9.12162 2.45578 9.15828 2.38361 9.21675 2.33139C9.27744 2.27719 9.35686 2.24897 9.43816 2.25234H13.0326C13.2387 2.25234 13.3081 2.30262 13.343 2.34868C13.3923 2.4137 13.4347 2.54893 13.4347 2.83269V7.3613C13.4347 7.89924 13.6827 8.26339 14.0428 8.26339C14.4572 8.26339 14.7559 8.01195 15.2783 7.4896L15.287 7.48088L15.2948 7.47135C16.4656 6.04356 17.4225 4.45298 18.1347 2.74943L18.1392 2.73666C18.1928 2.58613 18.2941 2.45726 18.4278 2.3697C18.5614 2.28215 18.72 2.24072 18.8794 2.25175L18.8881 2.25234H21.1782C21.4905 2.25234 21.5933 2.33183 21.6265 2.37884C21.6618 2.42885 21.6864 2.53604 21.6264 2.74625C20.8053 4.58266 19.7899 6.32579 18.598 7.94636L18.5905 7.95784C18.4748 8.13478 18.3479 8.33056 18.3295 8.55539C18.3098 8.7968 18.4143 9.01625 18.597 9.2515C18.7302 9.44844 19.0049 9.71733 19.2836 9.99012L19.3099 10.0158C19.6021 10.3018 19.9186 10.6116 20.1727 10.9116L20.1795 10.9195L20.1869 10.9269C20.9444 11.6825 21.5743 12.556 22.052 13.5132C22.1283 13.7738 22.0816 13.907 22.0223 13.9757C21.953 14.0561 21.7976 14.131 21.5035 14.131H19.222C19.0438 14.131 18.9063 14.0959 18.7749 14.0265C18.638 13.9542 18.4972 13.8392 18.3206 13.6617C18.1784 13.5187 18.023 13.3457 17.8334 13.1348C17.7864 13.0825 17.7373 13.0277 17.6857 12.9706Z" fill="currentColor"/>
    </symbol>
    <!-- social-youtube -->
    <symbol xmlns="http://www.w3.org/2000/svg" viewBox="0 0 22 16" fill="none" id="social-youtube">
        <path fill-rule="evenodd" clip-rule="evenodd" d="M9.38599 4.35642C9.1543 4.2174 8.86573 4.21376 8.6306 4.34689C8.39547 4.48002 8.25012 4.72934 8.25012 4.99954V10.9995C8.25012 11.2697 8.39547 11.5191 8.6306 11.6522C8.86573 11.7853 9.1543 11.7817 9.38599 11.6427L14.386 8.64266C14.6119 8.50712 14.7501 8.26299 14.7501 7.99954C14.7501 7.7361 14.6119 7.49197 14.386 7.35642L9.38599 4.35642ZM12.5424 7.99954L9.75012 9.6749V6.32419L12.5424 7.99954Z" fill="currentColor"/>
        <path fill-rule="evenodd" clip-rule="evenodd" d="M16.0308 0.640823C12.6821 0.37884 9.31816 0.37884 5.96951 0.640823L3.72881 0.816125C2.36624 0.922726 1.25155 1.94393 1.02632 3.29197C0.505551 6.40875 0.505551 9.59033 1.02632 12.7071C1.25155 14.0552 2.36624 15.0764 3.72881 15.183L5.96951 15.3583C9.31815 15.6202 12.6821 15.6202 16.0308 15.3583L18.2715 15.183C19.6341 15.0764 20.7488 14.0552 20.974 12.7071C21.4948 9.59033 21.4948 6.40875 20.974 3.29197C20.7488 1.94393 19.6341 0.922726 18.2715 0.816125L16.0308 0.640823ZM6.0865 2.13625C9.35728 1.88036 12.643 1.88036 15.9138 2.13625L18.1545 2.31156C18.8301 2.36441 19.3828 2.87076 19.4945 3.53917C19.9879 6.49228 19.9879 9.5068 19.4945 12.4599C19.3828 13.1283 18.8301 13.6347 18.1545 13.6875L15.9138 13.8628C12.643 14.1187 9.35727 14.1187 6.0865 13.8628L3.8458 13.6875C3.17019 13.6347 2.61749 13.1283 2.50581 12.4599C2.01239 9.5068 2.01239 6.49228 2.50581 3.53917C2.61749 2.87076 3.17019 2.36441 3.8458 2.31156L6.0865 2.13625Z" fill="currentColor"/>
    </symbol>
</svg>
