<svg width="80" height="80" viewBox="0 0 80 80" fill="none" xmlns="http://www.w3.org/2000/svg">
<path d="M33.5195 58.657C33.6867 57.3163 32.1815 56.7297 31.9306 56.1431C31.6797 55.5566 32.7668 54.7186 32.6832 54.0483C32.5996 53.3779 31.1779 53.6293 31.1779 53.6293C31.1779 53.6293 32.5996 52.7076 32.4323 51.9534C32.2651 51.1992 30.7598 50.8641 30.5089 50.1099C30.258 49.3558 31.479 48.9452 31.3452 48.0151C31.1779 46.8419 26.1603 44.9146 25.4077 43.7415C24.8307 42.8449 24.9059 41.2277 23.9024 39.2166C23.3337 38.077 22.6564 37.4234 21.9204 36.9877C15.4394 40.9931 13.0895 48.3 17.2206 55.4728C19.0437 58.6402 21.2932 61.1457 23.8104 63.0562C23.8439 63.0059 23.869 62.9556 23.894 62.9054C24.7219 61.2881 26.6621 61.506 29.2545 61.1708C31.8469 60.8356 33.3522 59.9977 33.5195 58.657Z" fill="#212529"/>
<path d="M61.3257 57.5841C61.5933 57.2406 61.7773 56.9138 61.886 56.587C61.3424 57.0311 60.7737 57.4417 60.18 57.7936C58.0559 59.0673 55.7143 59.7209 53.2222 59.7209C50.5295 59.7209 47.7447 58.9332 45.1606 57.4417C41.6567 55.4138 39.1479 52.2129 38.0774 48.4254C37.3833 45.9367 37.3582 43.3642 37.9771 40.8922C38.0858 40.4649 38.2112 40.0459 38.3534 39.6269C38.4705 39.3001 38.5876 38.9817 38.7297 38.6633C36.1958 36.1662 32.8675 34.8506 29.4388 34.8171C27.1976 34.8087 24.9229 35.3618 22.7988 36.493C25.3076 37.2388 26.7795 38.2946 27.6659 40.0627C28.6694 42.0737 28.5942 43.691 29.1712 44.5876C29.9238 45.7607 34.9414 47.688 35.1087 48.8611C35.2425 49.7912 34.0215 50.2018 34.2724 50.956C34.5233 51.7101 36.0286 52.0453 36.1958 52.7994C36.3631 53.5536 34.9414 54.4753 34.9414 54.4753C34.9414 54.4753 36.3631 54.224 36.4467 54.8943C36.5303 55.5647 35.4432 56.4026 35.6941 56.9892C35.945 57.5757 37.4502 58.1623 37.283 59.503C37.1157 60.8437 35.6104 61.6817 33.018 62.0169C30.4256 62.352 28.4771 62.1342 27.6575 63.7514C27.3732 64.3045 27.4234 64.891 27.6074 65.4189C31.1866 67.1954 35.1087 68.0082 39.0308 67.9998C39.0559 67.9998 39.0726 67.9998 39.0977 67.9998C39.2148 67.9998 39.3235 67.9998 39.4406 67.9998C47.9119 67.8406 56.3415 63.8939 61.3257 57.5841Z" fill="#6FBA1F" fill-opacity="0.3"/>
<path d="M41.7248 40.3647C41.2983 40.482 40.8551 40.5825 40.4119 40.658C40.0439 40.725 39.676 40.7753 39.2996 40.8172C38.7895 42.6188 38.6724 44.4455 38.9066 46.2219C40.5624 47.5794 42.6782 48.3922 44.9863 48.3922C50.2882 48.3922 54.5866 44.0852 54.5866 38.7726C54.5866 35.9571 53.3824 33.4349 51.4673 31.6752C50.7481 33.4516 49.6944 35.0772 48.3397 36.4682C46.4999 38.3536 44.2253 39.6776 41.7248 40.3647Z" fill="#212529"/>
<path d="M44.284 12.0334C44.2673 12.0334 44.2589 12.0334 44.2422 12.025C45.9064 12.754 47.3615 13.7763 48.5908 15.0668C49.887 16.4242 50.8822 18.0415 51.5679 19.8766C51.8439 20.6307 52.0697 21.41 52.2369 22.2145C52.3373 22.2396 52.446 22.2731 52.538 22.315L53.1568 22.6167C53.7422 22.9016 54.0349 23.5636 53.8509 24.1836L53.4829 25.4154C53.4411 25.5662 53.4913 25.7338 53.6251 25.8176C54.361 26.312 55.0468 26.8651 55.6823 27.4684C55.7994 27.5773 55.9667 27.5941 56.1088 27.5187L57.2294 26.8902C57.7897 26.5718 58.5006 26.7142 58.9103 27.217L59.3368 27.7533C59.7382 28.2644 59.7131 28.9851 59.2783 29.4627L58.4169 30.418C58.3082 30.5353 58.2915 30.7112 58.3751 30.8453C58.8183 31.5995 59.203 32.3955 59.5208 33.2251C59.5793 33.3759 59.7299 33.4681 59.8888 33.4597L61.1682 33.3759C61.8122 33.334 62.3976 33.7697 62.5397 34.3982L62.6903 35.0686C62.8324 35.697 62.4979 36.3422 61.8958 36.5852L60.6999 37.0713C60.5578 37.1299 60.4574 37.2807 60.4741 37.4316C60.5076 37.8673 60.5327 38.303 60.5327 38.7388C60.5327 39.1913 60.516 39.6354 60.4741 40.0711C60.4574 40.2303 60.5494 40.3728 60.6999 40.4398L61.8874 40.9258C62.4895 41.1688 62.8241 41.814 62.6735 42.4425L62.523 43.1128C62.3808 43.7413 61.7954 44.177 61.1515 44.1351L59.872 44.0513C59.7131 44.043 59.5626 44.1351 59.5041 44.286C59.1863 45.1155 58.8016 45.9116 58.3584 46.6657C58.2748 46.7998 58.2998 46.9758 58.4002 47.0931L59.2616 48.0484C59.6964 48.526 59.7215 49.255 59.3117 49.7578L58.8852 50.2941C58.4838 50.7968 57.773 50.9393 57.2043 50.6208L56.0837 49.984C55.9499 49.9086 55.7743 49.9254 55.6572 50.0343C55.0217 50.6376 54.3276 51.1907 53.5917 51.685C53.4579 51.7772 53.3993 51.9364 53.4495 52.0873L53.8175 53.319C54.0014 53.9391 53.7087 54.6011 53.1234 54.886L52.5045 55.1877C51.9191 55.4726 51.225 55.2882 50.8487 54.7519L50.1128 53.6961C50.0208 53.5704 49.8619 53.5118 49.7114 53.5537C48.8835 53.8218 48.0221 54.0145 47.144 54.1402C46.9851 54.1654 46.8597 54.2827 46.8346 54.4419L46.6256 55.7156C46.5754 56.0424 46.4081 56.3189 46.1656 56.52C48.4737 57.7853 50.8822 58.4221 53.2153 58.4221C56.3513 58.4221 59.3535 57.2658 61.8038 54.9279C62.1216 54.6262 62.4226 54.3078 62.7237 53.9643C63.3844 53.2017 63.9948 52.347 64.5468 51.3918C74.883 33.51 60.2233 14.388 44.284 12.0334Z" fill="#6FBA1F" fill-opacity="0.3"/>
<path d="M47.2765 21.9967C46.9754 23.0525 46.6075 24.0748 46.1726 25.0804C45.6625 26.2451 45.0771 27.3763 44.4248 28.4657C44.2576 28.7338 44.0987 29.0103 43.9231 29.2785C43.7474 29.5466 43.5802 29.8148 43.3962 30.0745C43.0366 30.6024 42.6603 31.1136 42.2756 31.6247C41.4895 32.6386 40.6616 33.619 39.7668 34.5492C40.5111 33.5185 41.247 32.4794 41.9327 31.4236C42.2756 30.8957 42.6101 30.3594 42.9363 29.8148C43.2624 29.2785 43.5718 28.7338 43.8645 28.1808C44.4583 27.0747 45.0019 25.9518 45.4702 24.7955C45.8298 23.9156 46.1475 23.0274 46.4235 22.1224C44.9851 22.3319 43.5551 22.5833 42.1335 22.8849C41.6484 22.9855 41.1634 23.086 40.6867 23.195C40.6365 23.3877 40.578 23.5804 40.5195 23.7732C40.4191 24.0832 40.3355 24.3932 40.2184 24.6949C38.4622 29.0774 34.4231 34.0045 35.1423 32.9319C35.8531 31.8593 36.5388 30.77 37.1577 29.6555C37.7932 28.5411 38.3619 27.4015 38.872 26.2367C39.1229 25.6585 39.357 25.0636 39.5661 24.4687C39.6748 24.1754 39.7668 23.8653 39.8672 23.572C39.8839 23.505 39.909 23.438 39.9257 23.3709C38.4455 23.7145 36.9737 24.1 35.5186 24.5189C34.5234 24.8038 33.5283 25.1055 32.5498 25.4239C32.5247 25.8848 32.416 26.3205 32.2739 26.7311C32.0982 27.2339 31.839 27.6947 31.5714 28.1472C31.2871 28.5914 30.9776 29.0187 30.6348 29.4209C30.3003 29.8231 29.9323 30.2086 29.5476 30.5773C29.8487 30.1499 30.1497 29.7226 30.4257 29.2952C30.7017 28.8595 30.9693 28.4238 31.1951 27.9629C31.4292 27.5104 31.6299 27.0495 31.7721 26.5719C31.8724 26.2619 31.9393 25.9434 31.9644 25.6166C31.0027 25.9351 30.041 26.2786 29.1044 26.6389C27.0137 27.4266 24.9732 28.3148 23.0164 29.3287C22.0379 29.8399 21.0846 30.3762 20.1731 30.9627C19.2532 31.5493 18.3751 32.1694 17.5555 32.8565L17.4468 32.756C18.2329 32.0269 19.0859 31.3566 19.9724 30.7281C20.8672 30.0997 21.7954 29.5215 22.7571 28.9684C24.6722 27.8707 26.6876 26.9071 28.7532 26.0272C29.4891 25.7172 30.2417 25.4239 30.9944 25.1306C30.5511 25.0636 30.1079 25.0133 29.6563 24.9798C29.2298 24.9463 28.795 24.9211 28.3601 24.9044C28.1427 24.896 27.9253 24.8876 27.7162 24.8876C27.4988 24.8792 27.2813 24.8792 27.0639 24.8792C26.2025 24.8709 25.3328 24.8876 24.4715 24.9128L21.8707 25.0049C22.707 24.8457 23.5599 24.72 24.4129 24.6279C25.2659 24.5273 26.1356 24.4687 27.0054 24.4351C27.2228 24.4268 27.4402 24.4268 27.6577 24.4184C27.8751 24.41 28.0925 24.4184 28.3183 24.4184C28.5357 24.4184 28.7615 24.4268 28.979 24.4351C29.1964 24.4435 29.4222 24.4603 29.6396 24.4687C30.3923 24.5189 31.1533 24.6111 31.9143 24.7871C32.968 24.4016 34.0384 24.0329 35.1088 23.6894C36.3465 23.2955 37.5925 22.9352 38.8553 22.5917C38.3284 22.4408 37.7932 22.2984 37.258 22.1727C36.221 21.9213 35.1673 21.6867 34.1136 21.5023C33.8544 21.452 33.5868 21.4101 33.3192 21.3682C33.0516 21.3264 32.7923 21.2845 32.5247 21.2426C32.2571 21.2007 31.9979 21.1671 31.7303 21.1336C31.4627 21.1001 31.2034 21.0666 30.9358 21.0331C29.8738 20.9074 28.8117 20.8152 27.7413 20.7398C28.8033 20.6979 29.8654 20.7147 30.9358 20.7733C31.471 20.7984 32.0062 20.8403 32.5415 20.8906C32.8091 20.9158 33.0767 20.9409 33.3443 20.9744L33.7457 21.0247C33.8795 21.0414 34.0133 21.0582 34.1471 21.0833C35.2175 21.2342 36.2879 21.4185 37.35 21.6532C38.2197 21.8459 39.0811 22.0637 39.9341 22.3067C40.5278 22.1559 41.1216 22.0051 41.7237 21.871C43.0868 21.5526 44.4666 21.2509 45.8548 20.9828L45.5705 20.7984L45.3698 20.6644C45.3029 20.6225 45.2276 20.5806 45.1607 20.5387C44.8764 20.3711 44.6004 20.1867 44.3161 20.0359L43.8896 19.7929C43.7474 19.7091 43.5969 19.6337 43.4548 19.5583C42.284 18.9382 41.0547 18.4019 39.817 17.8908C38.571 17.3964 37.3082 16.9271 36.0371 16.4914C34.7659 16.0473 33.4781 15.6199 32.1986 15.1758C33.5115 15.4775 34.8245 15.8127 36.129 16.173C37.4336 16.5417 38.7298 16.9355 40.0093 17.3964C41.2888 17.8489 42.5516 18.3768 43.7725 18.9885C44.8346 19.5164 45.8632 20.1197 46.8249 20.8068C47.4019 20.7063 47.979 20.6057 48.556 20.5135C49.1497 20.4214 49.7519 20.3376 50.354 20.2622C48.949 16.5501 46.0806 13.7597 42.0749 12.5949C41.6317 12.4693 41.1717 12.3603 40.7034 12.2681C39.7501 12.0922 38.7466 12 37.6929 12C17.0371 12 7.83811 34.2894 13.7756 49.2886C13.8091 49.3641 13.8341 49.4395 13.8676 49.5065C13.7171 47.7971 13.876 46.1128 14.3526 44.4956C14.8795 42.694 15.7827 41.0181 17.0287 39.5098C18.2664 38.0099 19.8218 36.7194 21.6365 35.6636C23.9948 34.2978 26.6541 33.5771 29.3135 33.5688C29.3218 33.5688 29.3218 33.5688 29.3302 33.5688C29.3386 33.5688 29.3386 33.5688 29.3469 33.5688C31.8892 33.5688 34.3896 34.2307 36.589 35.4793C37.5674 36.0323 38.479 36.7111 39.3069 37.482C39.6246 37.7836 39.9341 38.0937 40.2351 38.4289C40.486 38.7054 40.7202 38.9903 40.946 39.2836C47.0507 37.8339 51.3408 32.3621 51.3408 25.8345C51.3408 24.343 51.1568 22.9268 50.7972 21.6029C50.17 21.6699 49.5428 21.7369 48.9239 21.8124C48.372 21.8543 47.8201 21.9297 47.2765 21.9967Z" fill="#6FBA1F"/>
</svg>
