<svg width="80" height="80" viewBox="0 0 80 80" fill="none" xmlns="http://www.w3.org/2000/svg">
<path d="M40.118 5.35094C51.8976 4.94271 63.0002 14.3318 64.9409 26.1249C65.7081 30.7061 65.3019 35.1059 64.1285 39.5509C62.1878 46.7629 58.8029 53.2945 54.9666 59.5992C51.2206 65.7226 46.9782 71.4377 42.4649 77.0167C42.2844 77.2435 42.0587 77.4703 41.8782 77.6971C40.6596 78.9671 39.3508 79.0125 38.2225 77.6971C36.4172 75.5653 34.7021 73.3881 32.9871 71.1655C28.203 64.8608 23.8703 58.2385 20.35 51.1173C18.1836 46.8082 16.4235 42.3178 15.4306 37.6005C13.8509 30.2979 14.6182 23.4035 18.6801 16.9626C22.9225 10.295 31.1367 4.98807 40.118 5.35094ZM39.9375 9.43316C28.7898 9.02494 18.5898 18.9584 18.6801 30.8422C18.7704 42.091 27.8871 52.2512 40.0729 52.2059C52.2135 52.1605 61.3303 42.0003 61.3303 30.7061C61.3303 18.9584 51.2657 8.93423 39.9375 9.43316Z" fill="#6FBA1F" fill-opacity="0.3"/>
<path d="M41.0201 42.9529C41.0201 39.3697 40.8396 35.9224 41.0652 32.4752C41.2909 28.9826 42.5997 25.8983 45.5785 23.7211C45.8944 23.4943 46.2554 23.3582 47.0678 22.95C44.7209 26.1251 42.7351 28.8466 42.6448 32.702C46.0749 32.8381 48.6475 31.6588 50.4979 29.1187C52.9351 25.7169 53.4766 21.8614 53.0704 17.7338C50.3174 17.507 47.8351 17.8699 45.4431 18.7771C43.051 19.6842 41.2457 21.3171 39.982 23.585C38.7183 25.8529 38.7183 28.393 38.4475 31.1598C34.3856 26.3972 29.2856 25.7169 23.96 25.7622C23.5538 32.7927 29.8724 38.9614 35.8298 37.4646C35.4237 34.3349 33.2573 32.2484 31.1812 30.162C36.4166 32.2938 38.6732 36.376 37.6351 42.8622C38.8086 43.588 39.9369 43.5426 41.0201 42.9529Z" fill="#6FBA1F"/>
<path d="M46.707 44.4042C46.3008 44.5857 45.6238 44.4042 45.2627 44.1321C44.0441 43.1342 42.6902 42.726 41.0203 42.9981C39.9371 43.5878 38.8088 43.6331 37.6805 42.9528C36.5973 42.6353 35.5141 42.726 34.4761 43.2703C32.5354 44.3135 30.5947 45.4928 27.8867 45.6289C30.8203 48.4865 34.2053 49.439 37.6353 49.9379C42.8256 50.6636 47.5645 49.4843 51.8521 46.0825C50.1822 44.9485 48.8733 43.4971 46.707 44.4042Z" fill="#212529"/>
</svg>
