<svg width="80" height="80" viewBox="0 0 80 80" fill="none" xmlns="http://www.w3.org/2000/svg">
<path d="M63.3564 33.2689C63.3564 33.2689 63.3564 19.0928 63.3564 11.7806C59.8911 13.9191 56.599 15.9196 53.3069 17.9546C53.3069 20.2655 53.3069 22.5075 53.3069 24.784C51.9554 24.784 50.7079 24.784 49.3218 24.784C49.3218 21.4383 49.3218 18.196 49.3218 14.9193C47.7277 14.6434 46.203 15.0228 44.7129 14.6779C44.7129 12.8843 44.7129 11.1597 44.7129 9.43514C44.7129 7.67606 44.6782 5.91698 44.6782 4.1579C41.2129 3.88197 33.4851 3.98545 32.2376 4.33036C32.2376 6.2619 32.2376 8.19344 32.2376 10.1595C32.2376 12.0565 32.2376 13.9536 32.2376 15.8506C32.2376 17.7821 32.2723 19.7137 32.203 21.7142C31.0594 21.7142 30.0891 21.7487 29.0842 21.7142C28.0792 21.6797 27.0396 21.8867 25.9653 21.5417C25.9653 19.5412 25.9653 17.6097 25.9653 15.6436C24.2327 14.6089 22.604 13.5741 20.9059 12.5739C19.2079 13.6431 17.5792 14.6089 15.9505 15.6436C15.8812 19.2998 15.9851 22.8869 15.8812 26.612C14.4604 26.612 12 26.612 12 26.612L12.1386 59.862C12.1386 59.862 17.8218 59.862 20.6287 59.862L21.2525 58.9308C21.3911 58.7238 21.495 58.5514 21.6337 58.3444C21.9109 57.896 22.1881 57.4476 22.5347 57.0337C23.6436 55.5851 25.203 54.6193 26.9703 54.2399C27.8366 54.0674 28.703 53.9295 29.5693 53.8605C32.2376 53.619 34.5941 52.7912 36.7426 51.2736C36.7426 51.2391 36.7426 51.2391 36.7426 51.2046L35.4951 51.3426C35.1139 51.3771 34.7327 51.4116 34.3515 51.4116C31.4059 51.4116 28.6683 50.2043 26.6584 47.9969C24.5446 45.6859 23.4356 42.5472 23.7129 39.6154L23.8515 38.0288L25.4455 38.0633C27.9752 38.0978 30.5049 38.4427 32.9307 39.0635C34.4208 39.4429 35.8416 40.0293 37.1238 40.8226C37.1931 39.7879 37.2624 38.7531 37.5049 37.6839C38.198 34.5451 39.9307 32.2342 42.703 30.82C45.3713 29.4403 48.2475 29.2334 50.8119 29.0609L52.6139 28.923L52.6832 30.7165C52.6832 31.0614 52.7178 31.4064 52.7178 31.7168C52.7525 32.4066 52.7871 33.062 52.7871 33.7173V33.8898C52.7871 34.7866 52.7871 35.7178 52.6485 36.6836C52.4059 38.2357 51.8861 39.7189 51.0545 41.0296C49.5644 43.4095 47.0693 44.8581 44.4356 44.8581C43.8465 44.8581 43.2574 44.7892 42.703 44.6512L42.2871 44.5477C42.2525 45.548 42.2871 46.5827 42.2871 47.652C42.2871 48.3763 42.2871 49.1006 42.2871 49.8594C42.2871 50.0664 42.2871 50.2733 42.2871 50.4458C44.6782 50.8597 46.6188 51.9979 48.0396 53.895C48.4554 54.4468 49.0446 54.7918 49.8069 54.9297L50.0149 54.9642C50.7426 55.0677 51.4703 55.1712 52.0941 55.1712C52.1287 55.1712 52.198 55.1712 52.2327 55.1712C52.302 55.1712 52.3366 55.1712 52.4059 55.1712C53.7921 55.1712 55.0396 55.6196 56.2178 56.5508C56.703 56.9302 57.2921 57.4131 57.7772 58.0685C57.9158 58.2409 57.9505 58.2754 58.1584 58.2754C59.3366 58.4824 59.6832 59.1722 59.7871 60C60.3762 60 59.2327 60 59.7871 60C63.8069 60 66.5099 60 66.7871 60C67.1683 60 68 59.8965 68 59.8965C68 59.8965 68 42.5472 68 33.8898C68 33.7863 68 33.6138 68 33.6138L63.3564 33.2689Z" fill="#6FBA1F" fill-opacity="0.3"/>
<path d="M40.52 51.9289C40.52 51.3425 40.52 50.4112 40.52 49.7214C40.52 47.376 40.416 44.996 40.5893 42.6506C40.8318 39.2014 42.5299 36.6145 45.8566 35.1659C44.0546 37.4423 42.8071 39.8912 43.0843 42.8575C43.5348 42.961 43.9853 43.03 44.4011 43.03C46.411 43.03 48.3863 41.9263 49.5645 40.0292C50.2922 38.891 50.7427 37.6493 50.916 36.3386C51.0546 35.4418 51.0546 34.5105 51.0546 33.5793C51.0546 32.6825 50.9853 31.7512 50.9506 30.6475C48.2477 30.8199 45.7873 31.0269 43.5348 32.1996C41.1437 33.4413 39.7922 35.3728 39.2378 37.9252C38.9605 39.1324 38.9259 40.4086 38.8566 41.6848C38.7873 42.4091 38.8566 43.168 38.8566 44.1682C36.9853 42.3402 34.9407 41.2019 32.5843 40.6156C30.2279 40.0292 27.8714 39.7188 25.4803 39.6843C25.0645 44.1337 28.5992 49.5834 34.3863 49.5834C34.6982 49.5834 35.01 49.5834 35.3566 49.5489C34.8714 46.8241 33.1388 44.996 31.1289 43.3404C36.015 44.3062 39.0299 48.4797 38.4407 52.1358C38.9952 51.8599 39.6883 51.9978 40.52 51.9289Z" fill="#6FBA1F"/>
<path d="M56.357 58.9998C56.0105 58.5514 55.56 58.1375 55.1095 57.7925C54.3124 57.1717 53.4114 56.7923 52.3718 56.7923C52.3372 56.7923 52.3025 56.7923 52.2679 56.7923C52.1986 56.7923 52.1293 56.7923 52.06 56.7923C51.2283 56.7923 50.3619 56.6543 49.5303 56.5164C48.352 56.3439 47.3471 55.7575 46.6194 54.8263C45.1986 52.9292 43.2926 52.1014 40.9709 51.929C40.8669 51.929 40.6936 51.929 40.5204 51.929C39.6887 51.9979 38.9956 51.8255 38.3718 52.1014C35.8075 54.0674 32.8966 55.2057 29.6738 55.4816C28.8768 55.5506 28.0798 55.6541 27.2827 55.8265C25.8966 56.1369 24.7184 56.8613 23.852 57.9995C23.4362 58.5514 23.0897 59.1377 22.6738 59.7931C25.7233 59.7931 57.951 59.8965 57.951 59.8965C57.2926 59.8621 56.7728 59.5861 56.357 58.9998Z" fill="#212529"/>
</svg>
