<svg width="34" height="41" viewBox="0 0 34 41" fill="none" xmlns="http://www.w3.org/2000/svg">
<g clip-path="url(#clip0_160_113)">
<path d="M17.0001 30.5C22.7439 30.5 27.4001 25.8437 27.4001 20.1C27.4001 14.3562 22.7439 9.69995 17.0001 9.69995C11.2563 9.69995 6.6001 14.3562 6.6001 20.1C6.6001 25.8437 11.2563 30.5 17.0001 30.5Z" fill="white"/>
<path d="M13.6 20.9C12.5 19 12.8 18.9 12.8 18.9C12.3 19.2 10.8 22.5 12.5 23.6C13.2 24.1 14.9 23 13.6 20.9Z" fill="black"/>
<path d="M15.8001 17.7C14.7001 15.8 15.0001 15.7 15.0001 15.7C14.5001 16 13.0001 19.3 14.7001 20.4C15.4001 20.9 17.0001 19.9 15.8001 17.7Z" fill="black"/>
<path d="M15.5001 24.9C17.2001 26 19.6001 23.3 19.7001 22.7C19.7001 22.7 19.7001 22.9 17.5001 22.7C15.1001 22.5 14.8001 24.4 15.5001 24.9Z" fill="black"/>
<path d="M17.4 21.9C19.1 23 21.7 20 21.8 19.4C21.8 19.4 21.6 19.9 19.4 19.7C16.9 19.5 16.6 21.4 17.4 21.9Z" fill="black"/>
<path d="M17.9001 18.5C19.8001 20.2 21.3001 14.4 21.3001 14.4C20.8001 14.5 16.0001 16.9 17.9001 18.5Z" fill="black"/>
<path d="M11.9 26.7C12.3 26.1 13.3 24.4 13.8 23.6C17 18.7 18.3 18.1 18.3 18.1C16.3 20.8 14.5 23.7 12.9 26.7H11.9Z" fill="black"/>
<path d="M32.1001 20.2C32.1001 10.6 30.7001 7.3 30.7001 7.3C30.7001 7.3 33.4001 3.7 33.1001 0.199996C33.1001 0.199996 30.2001 -0.200004 25.3001 1.9H17.0001H8.70007C3.70007 -0.200004 0.800072 0.199996 0.800072 0.199996C0.500072 3.7 3.10007 7.3 3.10007 7.3C3.10007 7.3 1.70007 10.6 1.70007 20.2C1.70007 30.2 3.10007 33.1 3.10007 33.1C3.10007 33.1 0.400072 36.6 0.800072 40.1C0.800072 40.1 3.70007 40.5 8.60007 38.4H16.9001H25.2001C30.2001 40.5 33.0001 40.1 33.0001 40.1C33.3001 36.6 30.6001 33 30.6001 33C30.6001 33 32.1001 30.1 32.1001 20.2ZM16.9001 30.6C11.2001 30.5 6.60007 25.8 6.60007 20.1C6.60007 14.4 11.5001 9.7 17.2001 9.8C22.9001 9.9 27.5001 14.5 27.5001 20.2C27.5001 25.9 22.8001 30.6 17.1001 30.6C17.0001 30.6 17.0001 30.6 16.9001 30.6Z" fill="black"/>
</g>
<defs>
<clipPath id="clip0_160_113">
<rect width="32.4" height="40.1" fill="white" transform="translate(0.700073)"/>
</clipPath>
</defs>
</svg>
