<svg width="45" height="56" viewBox="0 0 45 56" fill="none" xmlns="http://www.w3.org/2000/svg">
<g clip-path="url(#clip0_160_112)">
<path d="M41.5001 45.5C41.5001 45.5 43.4001 41.5 43.4001 27.8C43.4001 14.6 41.5001 9.99996 41.5001 9.99996C41.5001 9.99996 45.2001 5.09996 44.8001 0.199958C44.8001 0.199958 40.9001 -0.400043 34.0001 2.49996L22.6001 2.69996L11.2001 2.49996C4.30013 -0.400043 0.300129 0.199958 0.300129 0.199958C-0.199871 4.99996 3.50013 9.99996 3.50013 9.99996C3.50013 9.99996 1.60013 14.5 1.60013 27.8C1.60013 41.5 3.50013 45.6 3.50013 45.6C3.50013 45.6 -0.199871 50.5 0.300129 55.3C0.300129 55.3 4.20013 55.9 11.1001 53H22.5001H33.9001C40.7001 55.9 44.7001 55.3 44.7001 55.3C45.2001 50.5 41.5001 45.5 41.5001 45.5Z" fill="black"/>
<path d="M22.6002 43.2C30.4978 43.2 36.9002 36.7976 36.9002 28.9C36.9002 21.0023 30.4978 14.6 22.6002 14.6C14.7025 14.6 8.30017 21.0023 8.30017 28.9C8.30017 36.7976 14.7025 43.2 22.6002 43.2Z" fill="white"/>
<path d="M17.8001 30.5C16.6001 28.3 16.8001 28.2 16.8001 28.2C16.2001 28.6 14.4001 32.2999 16.4001 33.5999C17.3001 34.1999 19.2001 33 17.8001 30.5Z" fill="black"/>
<path d="M20.1002 27C18.8002 24.8 19.1002 24.7 19.1002 24.7C18.5002 25.1 16.7002 28.8 18.7002 30.1C19.6002 30.8 21.5002 29.5 20.1002 27Z" fill="black"/>
<path d="M22.6002 23.5C21.3002 21.3 21.6002 21.2 21.6002 21.2C21.0002 21.6 19.2002 25.3 21.2002 26.6C22.1002 27.1 24.0002 26 22.6002 23.5Z" fill="black"/>
<path d="M20.4002 35C22.4002 36.3 25.2002 33.2 25.3002 32.5C25.3002 32.5 25.3002 32.8 22.8002 32.5C19.9002 32.2 19.5002 34.3 20.4002 35Z" fill="black"/>
<path d="M22.3002 31.6C24.3002 32.9 27.1002 29.8 27.2002 29.1C27.2002 29.1 27.2002 29.4 24.7002 29.1C21.8002 29 21.4002 31.1 22.3002 31.6Z" fill="black"/>
<path d="M24.5001 28.2C26.5001 29.5 29.5001 26.1 29.6001 25.4C29.6001 25.4 29.4001 26 26.8001 25.8C23.9001 25.5 23.6001 27.8 24.5001 28.2Z" fill="black"/>
<path d="M25.1001 24.4C27.3001 26.3 29.1001 19.6 29.1001 19.6C28.4001 19.8 22.9001 22.5 25.1001 24.4Z" fill="black"/>
<path d="M16.2002 38.1999C16.2002 38.2999 16.8002 35.7999 20.4002 30.0999C24.0002 24.3999 25.6002 23.7999 25.6002 23.7999C23.3002 27.1999 21.1002 30.6999 19.2002 34.2999C18.5002 35.5999 18.0002 37.0999 17.6002 38.4999L16.2002 38.1999Z" fill="black"/>
</g>
<defs>
<clipPath id="clip0_160_112">
<rect width="44.9" height="55.6" fill="white" transform="translate(0.100098)"/>
</clipPath>
</defs>
</svg>
