<svg width="18" height="23" viewBox="0 0 18 23" fill="none" xmlns="http://www.w3.org/2000/svg">
<g clip-path="url(#clip0_160_118)">
<path d="M17.3 11.0999C17.3 5.79995 16.5 3.99995 16.5 3.99995C17.4 2.89995 17.8 1.49995 17.8 0.0999475C16.3 -5.2534e-05 14.8 0.399947 13.5 0.999947H8.9H4.3C3 0.299947 1.5 -0.100053 0 -5.25368e-05C0 1.39995 0.5 2.79995 1.3 3.89995C1.3 3.89995 0.5 5.69995 0.5 10.9999C0.5 16.4999 1.3 18.0999 1.3 18.0999C0.5 19.2999 0 20.6999 0 22.0999C1.5 22.1999 3 21.7999 4.3 21.1999H8.9H13.5C14.8 21.8999 16.3 22.1999 17.8 22.0999C17.8 20.6999 17.3 19.2999 16.5 18.1999C16.6 18.1999 17.3 16.5999 17.3 11.0999Z" fill="black"/>
<path d="M8.89998 16.8C12.1032 16.8 14.7 14.2032 14.7 11C14.7 7.7967 12.1032 5.19995 8.89998 5.19995C5.69672 5.19995 3.09998 7.7967 3.09998 11C3.09998 14.2032 5.69672 16.8 8.89998 16.8Z" fill="white"/>
<path d="M7.99998 14C10.8 15.1 10.7 8.79998 10.3 8.59998C9.39998 8.09998 5.49998 12.9 7.99998 14Z" fill="black"/>
</g>
<defs>
<clipPath id="clip0_160_118">
<rect width="17.9" height="22.1" fill="white"/>
</clipPath>
</defs>
</svg>
