<svg width="9" height="12" viewBox="0 0 9 12" fill="none" xmlns="http://www.w3.org/2000/svg">
<g clip-path="url(#clip0_160_116)">
<path d="M7.7 0.6C7.7 0.6 6.8 0 4.1 0C2.9 0 1.7 0.2 0.5 0.6C0.2 2.4 0 4.2 0 6C0 7.7 0.2 9.4 0.6 11C1.7 11.3 2.8 11.4 3.9 11.4C5.1 11.5 6.3 11.3 7.5 10.9C8 9.2 8.2 7.4 8.2 5.6C8.1 3.9 7.9 2.2 7.7 0.6Z" fill="black"/>
<path d="M4.10002 3.40002C5.30002 3.40002 6.30002 4.40002 6.30002 5.60002C6.30002 6.80002 5.30002 7.80002 4.10002 7.80002C2.90002 7.80002 1.90002 6.80002 1.90002 5.60002C1.90002 4.40002 2.90002 3.40002 4.10002 3.40002Z" fill="white"/>
</g>
<defs>
<clipPath id="clip0_160_116">
<rect width="8.2" height="11.4" fill="white"/>
</clipPath>
</defs>
</svg>
