<svg width="12" height="17" viewBox="0 0 12 17" fill="none" xmlns="http://www.w3.org/2000/svg">
<g clip-path="url(#clip0_160_119)">
<path d="M11.3 0.899976C11.3 0.899976 9.7 0.0999756 5.9 0.0999756C4.1 0.0999756 2.2 0.399976 0.5 0.999976C0.5 0.999976 0 5.19998 0 8.79998C0 11.2 0.2 13.7 0.5 16.1C2.2 16.5 3.9 16.7 5.6 16.6C7.4 16.7 9.3 16.4 11.1 15.9C11.6 13.4 11.8 10.8 11.8 8.19998C11.8 5.79997 11.6 3.39998 11.3 0.899976Z" fill="black"/>
<path d="M5.9 11.8C4 11.8 2.5 10.3 2.5 8.4C2.5 6.5 4 5 5.9 5C7.8 5 9.3 6.5 9.3 8.4C9.3 10.3 7.8 11.8 5.9 11.8Z" fill="white"/>
</g>
<defs>
<clipPath id="clip0_160_119">
<rect width="11.8" height="16.6" fill="white"/>
</clipPath>
</defs>
</svg>
