<svg width="26" height="31" viewBox="0 0 26 31" fill="none" xmlns="http://www.w3.org/2000/svg">
<g clip-path="url(#clip0_160_114)">
<path d="M24.8 15.4C24.8 8.10003 23.7 5.60003 23.7 5.60003C23.7 5.60003 25.8 2.90003 25.5 0.200027C25.5 0.200027 23.3 -0.0999731 19.6 1.40003H13.4H7.00001C3.30001 2.69413e-05 1.10001 0.300027 1.10001 0.300027C0.800012 3.00003 2.90001 5.70003 2.90001 5.70003C2.90001 5.70003 1.80001 8.20003 1.80001 15.5C1.80001 23 2.90001 25.3 2.90001 25.3C2.90001 25.3 0.900012 28 1.10001 30.7C1.10001 30.7 3.30001 31 7.00001 29.5H13.3H19.6C23.4 31.1 25.5 30.7 25.5 30.7C25.8 28 23.7 25.3 23.7 25.3C23.7 25.3 24.8 22.9 24.8 15.4Z" fill="black"/>
<path d="M13.5 23.6C17.863 23.6 21.4 20.0631 21.4 15.7C21.4 11.337 17.863 7.80005 13.5 7.80005C9.13693 7.80005 5.59998 11.337 5.59998 15.7C5.59998 20.0631 9.13693 23.6 13.5 23.6Z" fill="white"/>
<path d="M11.1 15.0001C9.7 13.3001 10 13.2001 10 13.2001C9.6 13.6001 8.6 17.0001 10.5 17.8001C11.3 18.2001 12.7 16.9001 11.1 15.0001Z" fill="black"/>
<path d="M13.4 18.7C15.3 19.5 17.2 16.2 17.3 15.6C17.3 15.6 17.2 16.2 15 16.3C12.5 16.5 12.6 18.4 13.4 18.7Z" fill="black"/>
<path d="M13.3 15.3001C15.4 16.6001 15.9 10.7001 15.9 10.7001C15.4 11.0001 11.2 14.1001 13.3 15.3001Z" fill="black"/>
<path d="M10.7 20.1C12.7 15.5 13.8 14.9 13.8 14.9C13.8 14.9 12.7 17.4 11.6 20L10.7 20.1Z" fill="black"/>
</g>
<defs>
<clipPath id="clip0_160_114">
<rect width="24.8" height="30.8" fill="white" transform="translate(0.900024)"/>
</clipPath>
</defs>
</svg>
