<svg width="150" height="150" viewBox="0 0 150 150" fill="none" xmlns="http://www.w3.org/2000/svg">
<path d="M63.981 75.2574C67.1763 73.6769 70.4404 73.2646 73.9449 74.6046C79.9577 76.9066 83.4622 81.5107 85.833 87.2142C86.2453 88.1762 86.5545 89.207 86.8637 90.2377C87.3104 91.6464 88.135 92.2992 89.2001 92.0244C90.2996 91.7495 90.815 90.7531 90.4027 89.3444C88.5473 82.885 85.2832 77.3876 79.6828 73.4364C79.5454 73.3334 79.4079 73.2303 79.1674 73.0241C81.71 71.8216 84.2525 71.7529 86.8637 72.0964C89.7842 72.4744 92.4298 73.5395 94.7318 75.4292C95.0411 75.6697 95.3503 76.2538 95.2472 76.563C93.9072 80.4112 94.1477 84.2593 95.0754 88.1075C95.2128 88.7603 95.1441 89.5162 94.9723 90.169C93.9072 94.1202 94.0103 98.0027 95.5221 101.817C97.4118 106.627 101.157 109.204 106.104 110.131C106.414 110.2 106.689 110.234 107.067 110.303C107.067 112.261 107.067 114.22 107.067 116.35C103.459 116.694 99.8856 117.14 96.3123 117.347C87.6196 117.896 78.8926 117.931 70.1999 117.106C64.0497 116.522 57.9683 115.491 52.2991 112.811C47.7981 110.647 44.1561 107.554 43.2285 102.366C41.9916 95.5976 44.2592 89.8598 48.8976 84.9809C51.8181 81.923 55.357 79.724 59.2052 78.0061C60.1328 77.5938 60.82 77.6969 61.6103 78.3497C65.4928 81.4763 68.0696 85.4962 70.1312 89.9285C70.2686 90.2377 70.406 90.5813 70.5778 90.8905C71.1275 91.9213 72.0896 92.3336 72.9829 91.8869C74.0137 91.3715 74.426 90.4782 73.8762 89.4475C72.227 86.4239 70.6465 83.3317 68.7225 80.4799C67.4168 78.5902 65.6302 77.0441 63.981 75.2574Z" fill="#212529"/>
<path fill-rule="evenodd" clip-rule="evenodd" d="M109.898 50.0568L109.895 50.0546C108.51 49.1442 107.103 48.2189 105.658 47.2553C106.689 43.6477 108.75 40.4867 111.327 37.635C112.083 36.8104 113.251 36.8447 114.041 37.738C116.343 40.3493 118.267 43.2354 119.332 46.5682C119.436 46.9118 119.229 47.5989 118.92 47.8051C117.427 48.7534 115.949 49.6691 114.488 50.5746L114.487 50.5751L114.486 50.5757L114.486 50.5763C113.83 50.9824 113.178 51.3865 112.53 51.7906C111.659 51.2147 110.783 50.6388 109.898 50.0568ZM114.352 106.627L114.351 106.661L114.316 106.627L114.352 106.627ZM114.352 106.627C114.384 105.744 114.385 104.854 114.386 103.963C114.389 102.059 114.391 100.154 114.694 98.3122C115.45 93.502 118.405 90.2723 123.043 88.6574C124.693 88.0733 125.448 88.4513 126.239 90.0661C130.018 97.8311 124.899 106.455 116.309 106.696C115.935 106.715 115.55 106.69 115.166 106.665C114.892 106.647 114.619 106.629 114.352 106.627ZM110.565 106.798L110.571 106.798H110.545C110.542 106.798 110.539 106.799 110.536 106.799L110.537 106.798V106.798L110.537 106.795L110.539 106.796L110.571 106.764L110.571 106.764C110.572 106.775 110.574 106.787 110.575 106.798C110.572 106.798 110.569 106.798 110.565 106.798ZM114.282 106.663C114.29 107.424 114.301 108.185 114.312 108.946C114.344 111.265 114.376 113.584 114.35 115.904C114.35 117.037 113.56 117.759 112.495 117.69C111.292 117.622 110.743 116.866 110.743 115.766C110.725 114.512 110.725 113.249 110.725 111.987C110.725 110.724 110.725 109.461 110.708 108.207C110.708 107.737 110.643 107.267 110.575 106.798C111.198 106.78 111.821 106.755 112.443 106.73C113.056 106.705 113.669 106.68 114.282 106.663ZM114.282 106.663C114.282 106.651 114.282 106.639 114.281 106.627L114.35 106.661C114.327 106.662 114.305 106.662 114.282 106.663ZM110.602 104.361C110.575 105.17 110.548 105.981 110.537 106.795C110.086 106.755 109.634 106.726 109.184 106.698L109.183 106.698C108.137 106.632 107.095 106.566 106.07 106.352C101.054 105.287 97.9959 101.438 97.9272 95.7693C97.8929 93.8453 98.4082 91.8181 99.0267 89.9628C99.5077 88.451 100.47 88.1761 102.016 88.6228C106.757 90.0315 110.434 94.6011 110.64 99.5144C110.708 101.138 110.655 102.746 110.602 104.359V104.359V104.36V104.36V104.36V104.36V104.361V104.361V104.361ZM114.385 90.1688C119.538 85.2899 122.906 84.0187 126.891 85.3243C127.441 82.4038 127.372 79.5864 126.032 76.9065C125.448 75.7727 124.589 75.326 123.284 75.7383C120.672 76.5629 118.302 77.7998 116.137 79.4834C114.866 80.4798 114.11 81.5792 114.35 83.2971C114.469 84.0811 114.44 84.8816 114.411 85.687V85.6872V85.6873V85.6874V85.6876V85.6877V85.6879C114.398 86.047 114.385 86.4072 114.385 86.7673V90.1688ZM110.709 90.0315C107.067 86.6987 103.528 83.8469 98.2364 85.1869C97.6523 82.2665 97.7554 79.4147 99.2328 76.666C99.7482 75.704 100.573 75.3604 101.707 75.6696C104.868 76.5973 107.685 78.1435 110.021 80.4798C110.331 80.789 110.674 81.2013 110.674 81.5793C110.725 83.6291 110.719 85.6597 110.713 87.7995C110.711 88.5291 110.709 89.2714 110.709 90.0315ZM121.325 59.7277C123.077 58.9374 124.933 58.7313 126.891 59.762C127.441 56.6698 127.372 53.8868 126.067 51.2412C125.517 50.1417 124.692 49.6263 123.455 50.0042C120.294 50.9663 117.477 52.4781 115.106 54.8144C114.831 55.0893 114.454 55.4672 114.454 55.7765C114.402 57.6374 114.408 59.4789 114.415 61.2717C114.417 61.8621 114.419 62.4473 114.419 63.0261C115.199 62.6529 115.965 62.2797 116.723 61.9102C118.267 61.1571 119.781 60.4192 121.325 59.7277ZM126.891 72.4059C122.756 71.188 119.648 73.0053 116.452 74.8746L116.451 74.8748L116.451 74.8748L116.451 74.8749C115.77 75.2731 115.085 75.6738 114.385 76.0479C114.385 75.4189 114.383 74.792 114.381 74.1672V74.1671V74.1669V74.1668C114.374 72.3007 114.368 70.4539 114.419 68.6265C114.419 68.3516 114.729 68.008 114.969 67.7675C117.374 65.3624 120.26 63.7819 123.49 62.8199C124.693 62.4763 125.483 62.9917 125.998 64.0224C127.372 66.7024 127.441 69.5541 126.891 72.4059ZM98.2369 59.5215C101.673 58.4908 104.181 59.1779 110.709 63.2322C110.709 62.5981 110.711 61.9727 110.713 61.3544C110.72 59.5274 110.726 57.7626 110.675 56.017C110.675 55.6047 110.331 55.1236 110.022 54.8144C107.685 52.478 104.902 51.0006 101.81 50.0386C100.642 49.695 99.7487 50.0042 99.1646 51.1381C97.7902 53.818 97.6528 56.6011 98.2369 59.5215ZM98.2367 72.3708C97.6526 69.6221 97.79 66.9765 98.9238 64.3997C99.6454 62.7505 100.401 62.4412 102.085 62.9566C105.074 63.8843 107.72 65.3617 109.919 67.5606C110.331 67.9729 110.64 68.6945 110.64 69.2786C110.691 70.9231 110.685 72.5676 110.679 74.2552C110.677 74.8242 110.674 75.398 110.674 75.9785C109.949 75.5969 109.238 75.1847 108.531 74.7746C105.355 72.9321 102.256 71.1343 98.2367 72.3708Z" fill="#6FBA1F" fill-opacity="0.3"/>
<path d="M94.0437 21.7953C77.1737 19.3902 60.0632 19.3902 42.8839 21.864C42.8839 27.7393 42.8496 33.5116 42.9183 39.2838C42.9527 41.0017 43.1588 42.7196 43.5024 44.4032C45.2203 52.9584 49.2403 60.5173 53.7756 67.8357C54.1879 68.4885 54.5658 69.1413 54.9781 69.7597C45.2547 64.4685 36.7681 57.9748 31.7174 47.8734C29.6559 43.716 29.6903 39.3181 29.9995 34.7141C32.4046 34.7141 34.6723 34.7141 37.1461 34.7141C36.4933 32.4121 35.9435 30.2475 35.2907 28.1173C35.1876 27.8081 34.6723 27.3957 34.363 27.3957C30.4805 27.3614 26.598 27.3614 22.5437 27.3614C22.5437 31.347 22.6125 35.1951 22.5094 39.0089C22.3719 44.4375 23.7463 49.4539 26.5637 54.0579C32.9887 64.5716 41.9906 72.0274 52.8479 77.2155C55.4935 75.4632 57.7955 74.0889 57.7955 74.0889L62.3308 71.8556C64.8046 70.6187 67.3472 70.0002 69.7866 70.0002C71.4702 70.0002 73.1537 70.2751 74.803 70.8592L77.5173 69.5536C79.3039 68.6946 81.1593 68.248 83.2208 68.1105C93.3565 54.1954 96.3457 38.6653 94.0437 21.7953ZM67.4159 54.6764C67.4159 54.6764 67.519 38.8715 67.2785 35.3669C65.4575 35.3669 63.7395 35.3669 61.8842 35.3669C62.3652 33.6146 62.7775 31.9998 63.2929 30.3849C63.3616 30.1444 63.7739 29.8352 64.0144 29.8352C66.9349 29.8008 69.8897 29.8008 72.9476 29.8008C72.9476 32.8244 72.9476 53.9548 72.9476 53.9548L67.4159 54.6764Z" fill="#6FBA1F"/>
</svg>
