<svg width="150" height="150" viewBox="0 0 150 150" fill="none" xmlns="http://www.w3.org/2000/svg">
<path d="M32.6166 43.9923C34.7097 43.9225 36.698 45.5969 37.012 47.69C37.1515 48.4923 37.0818 49.2946 36.8724 50.0621C36.5236 51.3528 35.9306 52.5039 35.2329 53.6202C34.5701 54.7016 33.8027 55.7132 33.0004 56.7248C32.9655 56.7597 32.9306 56.7946 32.8957 56.8295C32.6864 57.0388 32.4422 57.0737 32.2329 56.8295C31.919 56.4458 31.605 56.0621 31.2911 55.6783C30.4538 54.5621 29.6864 53.376 29.0585 52.1202C28.6748 51.3528 28.3608 50.5504 28.1864 49.7132C27.9073 48.4225 28.0469 47.2016 28.7794 46.0504C29.5818 44.8644 31.012 43.9225 32.6166 43.9923Z" fill="#6FBA1F"/>
<path d="M44.8256 66.5624C46.9186 66.4926 48.907 68.167 49.221 70.26C49.3605 71.0624 49.2907 71.8647 49.0814 72.6321C48.7326 73.9228 48.1396 75.074 47.4419 76.1903C46.7791 77.2717 46.0117 78.2833 45.2093 79.2949C45.1745 79.3298 45.1396 79.3647 45.1047 79.3996C44.8954 79.6089 44.6512 79.6438 44.4419 79.3996C44.1279 79.0158 43.814 78.6321 43.5 78.2484C42.6628 77.1321 41.8954 75.9461 41.2675 74.6903C40.8838 73.9228 40.5698 73.1205 40.3954 72.2833C40.1163 70.9926 40.2559 69.7717 40.9884 68.6205C41.7559 67.4344 43.221 66.4926 44.8256 66.5624Z" fill="#6FBA1F"/>
<path d="M70.7436 81.5624C72.8366 81.4926 74.825 83.167 75.1389 85.26C75.2785 86.0624 75.2087 86.8647 74.9994 87.6321C74.6506 88.9228 74.0575 90.074 73.3599 91.1903C72.6971 92.2717 71.9296 93.2833 71.1273 94.2949C71.0924 94.3298 71.0575 94.3647 71.0227 94.3996C70.8134 94.6089 70.5692 94.6438 70.3599 94.3996C70.0459 94.0158 69.732 93.6321 69.418 93.2484C68.5808 92.1321 67.8134 90.9461 67.1854 89.6903C66.8017 88.9228 66.4878 88.1205 66.3134 87.2833C66.0343 85.9926 66.1738 84.7717 66.9064 83.6205C67.6738 82.4344 69.1389 81.4926 70.7436 81.5624Z" fill="#6FBA1F"/>
<path d="M96.8022 70.5041C98.8952 70.4344 100.884 72.1088 101.198 74.2018C101.337 75.0041 101.267 75.8065 101.058 76.5739C100.709 77.8646 100.116 79.0158 99.4185 80.132C98.7557 81.2134 97.9882 82.2251 97.1859 83.2367C97.151 83.2716 97.1161 83.3064 97.0813 83.3413C96.8719 83.5506 96.6278 83.5855 96.4185 83.3413C96.1045 82.9576 95.7906 82.5739 95.4766 82.1902C94.6394 81.0739 93.8719 79.8878 93.244 78.632C92.8603 77.8646 92.5464 77.0623 92.3719 76.2251C92.0929 74.9344 92.2324 73.7134 92.965 72.5623C93.7673 71.3762 95.2324 70.4344 96.8022 70.5041Z" fill="#6FBA1F"/>
<path d="M123.105 37.5036C125.198 37.4339 127.186 39.1083 127.5 41.2013C127.64 42.0036 127.57 42.806 127.361 43.5734C127.012 44.8641 126.419 46.0153 125.721 47.1315C125.058 48.2129 124.291 49.2246 123.489 50.2362C123.454 50.2711 123.419 50.306 123.384 50.3409C123.175 50.5502 122.93 50.585 122.721 50.3409C122.407 49.9571 122.093 49.5734 121.779 49.1897C120.942 48.0734 120.175 46.8874 119.547 45.6315C119.163 44.8641 118.849 44.0618 118.675 43.2246C118.396 41.9339 118.535 40.7129 119.268 39.5618C120.07 38.3757 121.535 37.4339 123.105 37.5036Z" fill="#6FBA1F"/>
<path fill-rule="evenodd" clip-rule="evenodd" d="M133.43 70.6089C133.299 70.3653 133.158 70.1293 133.017 69.8935C132.632 69.2509 132.248 68.6092 132.07 67.8182C131.547 65.4112 129.872 63.9112 127.605 63.1437C126.593 62.7949 125.895 62.2019 125.442 61.2949C125.023 60.4926 125.163 59.4112 125.86 58.9228C126.628 58.3996 127.151 57.7717 127.326 56.8647C127.57 55.7484 127.465 54.7019 126.977 53.6903C126.89 53.5161 126.811 53.3419 126.733 53.1677L126.733 53.1676L126.733 53.1675L126.733 53.1674L126.733 53.1673L126.733 53.1672L126.733 53.1671L126.733 53.167C126.654 52.9926 126.576 52.8182 126.488 52.6437C126.478 52.6543 126.467 52.6681 126.456 52.6831C126.429 52.7177 126.397 52.759 126.349 52.7833L126.279 52.8531L126.14 52.9926C125.302 53.8647 124.186 54.3531 123.035 54.3531C121.814 54.3531 120.628 53.7949 119.791 52.8531C119.48 52.4854 119.168 52.0948 118.913 51.7742C118.854 51.6994 118.797 51.6284 118.744 51.5624C117.663 50.1321 116.791 48.7717 116.128 47.3763C115.57 46.2251 115.151 45.1437 114.942 44.0624C114.767 43.1903 114.698 42.3182 114.733 41.481C114.244 41.9693 113.686 42.3879 113.093 42.7717C110.756 44.2717 109.465 46.4344 108.802 49.0507C108.734 49.3067 108.678 49.5668 108.622 49.828C108.449 50.6349 108.274 51.4524 107.721 52.1903C105.384 52.3647 103.57 53.4112 102.698 55.6786C97.9535 55.7833 95.8256 57.4228 95.7558 61.1903C92.7907 59.0624 92.5116 59.0624 88.3605 61.3996C88.2815 61.131 88.2096 60.8553 88.1385 60.5822L88.1383 60.5816C88.0524 60.2518 87.9675 59.9257 87.8721 59.6205C87.4884 58.5042 86.686 57.8065 85.5349 57.4926C84.593 57.2484 83.686 57.0042 82.8139 56.481C81.6279 55.7484 80.1279 56.2019 79.186 57.1437C79.005 57.3429 78.8427 57.5609 78.6846 57.7732L78.6846 57.7733L78.6844 57.7735L78.6844 57.7736C78.5379 57.9703 78.3951 58.1621 78.2442 58.3298C77.881 58.4587 77.5139 58.5639 77.1508 58.668C76.4327 58.8739 75.7302 59.0754 75.1047 59.4461C74.5022 59.7835 73.983 60.2873 73.3514 60.9002L73.3514 60.9002L73.3513 60.9003L73.351 60.9006L73.3501 60.9015C73.0678 61.1754 72.7631 61.471 72.4186 61.7833C72.1705 61.8896 71.8052 62.059 71.3732 62.2594L71.3727 62.2597L71.3701 62.2609L71.3696 62.2611L71.3675 62.2621L71.367 62.2623L71.3666 62.2625L71.3663 62.2626L71.366 62.2628C70.9495 62.456 70.4715 62.6778 69.9767 62.8996C69.1395 61.5042 68.0581 60.3879 66.314 60.4926C64.4302 60.6321 63.0698 61.6089 62.3023 63.3182C61.6051 63.0044 60.9079 62.7255 60.2107 62.4466L60.2105 62.4466L60.2104 62.4465L60.2103 62.4465L60.2101 62.4464L60.21 62.4464L60.2099 62.4463L60.2097 62.4462L60.2096 62.4462L60.2094 62.4461L60.2093 62.4461C59.7919 62.5779 59.3745 62.6959 58.9135 62.8261L58.9131 62.8263L58.9131 62.8263L58.913 62.8263L58.9129 62.8263L58.9128 62.8263L58.9127 62.8264L58.9127 62.8264L58.9114 62.8267C58.641 62.9032 58.3557 62.9838 58.0465 63.074C57.9603 62.9956 57.8727 62.9141 57.7834 62.831C57.0782 62.1747 56.2658 61.4188 55.1512 61.2949C54 61.1554 52.8837 61.0507 51.7326 60.9461C52.5 58.6437 52.5349 56.3065 51.9419 53.9693C51.8721 53.6205 51.7326 53.3065 51.593 52.9926C50.686 50.8647 48.314 49.26 45.4535 51.2484C44.8364 51.6658 44.1816 52.036 43.5234 52.4081L43.5234 52.4082L43.5234 52.4082L43.5233 52.4082L43.5233 52.4082L43.5233 52.4082L43.5232 52.4083L43.5232 52.4083L43.5232 52.4083L43.5231 52.4083C42.9163 52.7514 42.3066 53.0961 41.7209 53.481C41.0175 53.9426 40.3279 54.4457 39.6173 54.9643C39.2002 55.2686 38.7759 55.5783 38.3372 55.8879C37.6744 56.9693 36.907 58.0158 35.9302 59.2368C35.9128 59.2717 35.8866 59.2978 35.8605 59.324C35.8343 59.3501 35.8081 59.3763 35.7907 59.4112L35.7209 59.481L35.5814 59.6205C34.7442 60.4926 33.6279 60.981 32.4767 60.981C31.2558 60.981 30.0698 60.4228 29.2326 59.481C28.9186 59.1321 28.6395 58.7833 28.3953 58.4693C27.5233 59.3065 26.9302 60.3879 26.686 61.7484C26.5957 62.2228 26.4468 62.6826 26.3057 63.1183L26.3057 63.1183C26.2289 63.3554 26.1545 63.5853 26.093 63.8065C22.9186 64.0158 21.9767 65.6205 23.0581 68.9693C21.9419 70.7135 22.1163 72.667 22.7442 74.7251C21.5581 74.6903 20.5116 74.9693 19.4651 75.4228C19.0103 75.6275 18.4813 75.6394 17.9265 75.6519H17.9264C17.6303 75.6586 17.3268 75.6655 17.0233 75.7019C16.0116 76.1554 15.4535 77.0624 15 78.074V81.9112C15.314 82.6786 15.6279 83.4461 15.9767 84.2135C16.1185 84.5113 16.2949 84.7918 16.4707 85.0714C16.7275 85.4796 16.983 85.8859 17.1279 86.3414C17.1626 86.4403 17.1976 86.5391 17.2325 86.6379C17.6539 87.8304 18.0778 89.0297 18.1744 90.3182C18.2442 91.2949 18.4884 92.2368 18.8023 93.1786C19.1512 94.2252 19.814 94.9926 20.9651 95.167C22.3256 95.3763 23.5814 95.1321 24.314 93.8763C24.7149 93.1858 25.0589 92.4527 25.4187 91.6859C25.6224 91.2519 25.8312 90.807 26.0581 90.3531C27.4535 90.7717 28.8837 90.5624 30.1047 89.5159C31.0806 88.7072 31.2541 87.5642 31.427 86.4254C31.4704 86.1395 31.5138 85.8539 31.5698 85.574C32.1765 85.4841 32.7398 85.4087 33.3343 85.3291C33.6627 85.2851 34.0005 85.2399 34.3605 85.1903C34.4082 85.2618 34.4722 85.3416 34.5428 85.4295C34.6786 85.5986 34.8387 85.7979 34.9535 86.0275C35.686 87.3531 36.6279 88.4693 37.9186 89.3763C38.6163 89.8647 39.1744 90.5624 39.6977 91.26C40.4651 92.3065 41.5465 92.8298 42.7674 93.0042C44.407 93.2833 45.4535 92.5507 46.1512 90.8414C46.9535 90.4228 47.7209 90.0391 48.3488 89.7252C49.343 89.9083 50.2784 90.0914 51.2137 90.2746C51.5255 90.3356 51.8372 90.3967 52.1512 90.4577C52.3953 91.8879 52.3953 91.8879 53.686 93.1438C53.7218 93.1795 53.7575 93.2129 53.792 93.2452L53.7922 93.2454L53.7927 93.2459L53.793 93.2461C53.893 93.3397 53.9831 93.424 54.0349 93.5275C54.6977 94.9228 55.8837 95.3414 57.3837 95.167C57.4594 95.4604 57.5326 95.7512 57.6052 96.0401L57.6053 96.0405L57.6054 96.0409L57.6055 96.0413L57.6056 96.0417L57.6057 96.0421L57.6058 96.0425L57.6059 96.043L57.6061 96.0434C57.8009 96.8184 57.9925 97.5799 58.2209 98.3414C58.6744 99.8414 59.5465 100.888 61.2209 101.062C62.1977 101.167 62.8605 101.865 63.4884 102.562C64.2907 103.469 65.1279 104.341 66.2442 104.934C67.8488 105.772 69.4884 105.911 71.0581 105.039C72.5581 104.202 73.9186 104.027 75.3837 105.039C75.8372 105.353 76.4651 105.493 77.0233 105.597C79.3605 105.981 80.5814 105.283 81.8023 102.946C83.3721 104.132 85.1163 104.655 87.0698 104.551C87.6837 104.525 88.2977 104.706 88.9117 104.887C89.1349 104.952 89.3581 105.018 89.5814 105.074C90.593 105.318 91.5698 105.458 92.6163 105.388C94.0116 105.283 95.1628 104.76 96.2093 103.818C96.447 103.602 96.7114 103.426 96.9529 103.266L96.953 103.266C97.1013 103.167 97.241 103.074 97.3605 102.981C97.7438 102.923 98.1156 102.876 98.477 102.831L98.4773 102.831L98.4776 102.831L98.4778 102.831L98.478 102.831C99.2015 102.741 99.8837 102.655 100.535 102.493C102.628 101.934 103.674 100.469 103.953 98.3763C104.093 97.4693 104.198 96.5624 103.988 95.6554C103.942 95.4473 103.957 95.2238 103.973 94.9952C103.98 94.879 103.988 94.7614 103.988 94.6438C104.793 94.465 105.292 94.8972 105.768 95.3096L105.769 95.3098C105.85 95.3801 105.93 95.4498 106.012 95.5159C106.383 95.7946 106.724 96.1043 107.065 96.414L107.065 96.4142L107.065 96.4143L107.065 96.4144L107.065 96.4145L107.065 96.4146L107.065 96.4147L107.066 96.4148L107.066 96.415L107.066 96.4151C107.236 96.5701 107.407 96.7252 107.581 96.8763C110.023 99.0042 112.709 99.8763 116.198 98.5507C114.453 100.958 115.221 103.26 115.953 105.458C116.616 107.516 118.674 107.969 120.174 106.958C122.337 105.527 124.291 103.923 124.988 101.272L124.988 101.272C125.128 100.713 125.267 100.155 125.267 99.5624C125.272 99.3023 125.278 99.0416 125.284 98.7804V98.7802C125.318 97.1842 125.352 95.5697 125.233 93.981C124.953 89.9693 123.628 86.3065 121.256 83.0624C120.209 81.667 118.884 80.7252 117 80.7949C116.058 80.8298 115.326 81.2135 114.488 81.8763C114.528 81.616 114.566 81.3673 114.602 81.1267L114.602 81.1257L114.602 81.1242C114.691 80.5274 114.773 79.9809 114.872 79.4344C114.924 79.1554 115.003 78.8763 115.081 78.5972C115.16 78.3182 115.238 78.0391 115.291 77.76C115.674 75.5624 116.651 73.7484 118.64 72.5624C119.163 72.2484 119.616 71.7251 119.965 71.2019C120.837 69.8414 121.36 68.4112 120.733 66.7717C120.621 66.5041 120.538 66.2223 120.456 65.9445L120.456 65.9442C120.41 65.7874 120.364 65.6319 120.314 65.481C120.767 64.9577 121.186 64.9926 121.465 65.481C121.636 65.7537 121.823 66.0264 122.011 66.3012C122.594 67.151 123.191 68.0203 123.349 68.9693C123.942 72.4228 126.174 74.2717 129.174 75.4926L129.175 75.4928L129.175 75.4928L129.175 75.4929L129.175 75.4929L129.175 75.4929L129.175 75.493L129.176 75.493L129.176 75.493L129.176 75.4931L129.176 75.4931C129.559 75.6325 129.942 75.7718 130.291 75.9112C132.035 76.574 133.674 76.4693 135 74.9693V72.8763C134.815 72.6054 134.618 72.3432 134.421 72.082C134.059 71.6032 133.701 71.128 133.43 70.6089ZM52.7791 73.6089C52.2558 75.4926 51.4186 77.0624 50.7209 78.1786C50.0233 79.2949 49.2209 80.4112 48.2093 81.667C48.1919 81.7019 48.1657 81.7281 48.1395 81.7542C48.1134 81.7804 48.0872 81.8065 48.0698 81.8414L48 81.9112L47.8605 82.0507C47.0233 82.9228 45.907 83.4112 44.7558 83.4112C43.5349 83.4112 42.3488 82.8531 41.5116 81.9112C41.2712 81.627 41.0444 81.3429 40.8314 81.0759C40.7044 80.9168 40.5823 80.7638 40.4651 80.6205C39.3837 79.1903 38.5116 77.8298 37.8488 76.4344C37.2907 75.2833 36.8721 74.2019 36.6628 73.1205C36.1744 70.7833 36.5233 68.5158 37.7442 66.5972C39.2442 64.2251 41.8953 62.76 44.6512 62.76H44.8256H44.9302C48.8721 62.76 52.3605 65.7251 52.9884 69.667C53.2326 70.9228 53.1628 72.2135 52.7791 73.6089ZM78.6977 88.6438C78.1744 90.5275 77.3372 92.0972 76.6395 93.2135C75.9419 94.3298 75.1395 95.4461 74.1279 96.7019C74.1105 96.7368 74.0843 96.7629 74.0581 96.7891C74.032 96.8153 74.0058 96.8414 73.9884 96.8763L73.9186 96.9461L73.7791 97.0856C72.9419 97.9577 71.8256 98.4461 70.6744 98.4461C69.4535 98.4461 68.2674 97.8879 67.4302 96.9461C67.1898 96.6619 66.963 96.3777 66.7499 96.1107C66.623 95.9516 66.5009 95.7986 66.3837 95.6554C65.3023 94.2252 64.4302 92.8647 63.7674 91.4693C63.2093 90.3182 62.7907 89.2368 62.5814 88.1554C62.093 85.8182 62.4419 83.5507 63.6628 81.6321C65.1628 79.26 67.814 77.7949 70.5698 77.7949H70.7442H70.8488C74.7907 77.7949 78.2791 80.76 78.907 84.7019C79.1512 85.9228 79.0814 87.2484 78.6977 88.6438ZM104.791 77.5507C104.267 79.4345 103.43 81.0042 102.733 82.1205C102.035 83.2368 101.233 84.3531 100.221 85.6089C100.203 85.6437 100.177 85.6699 100.151 85.6961C100.125 85.7222 100.099 85.7484 100.081 85.7833L100.012 85.8531L99.8721 85.9926C99.0349 86.8647 97.9186 87.3531 96.7674 87.3531C95.5465 87.3531 94.3605 86.7949 93.5233 85.8531C93.2829 85.569 93.0562 85.2849 92.8432 85.018L92.8431 85.0179L92.8431 85.0178L92.843 85.0177L92.8418 85.0162C92.7153 84.8577 92.5936 84.7052 92.4767 84.5624C91.3953 83.1321 90.5233 81.7717 89.8605 80.3763C89.3023 79.2251 88.8837 78.1438 88.6744 77.0624C88.186 74.7251 88.5349 72.4577 89.7558 70.5391C91.2558 68.167 93.907 66.7019 96.6628 66.7019H96.8372H96.9419C100.884 66.7019 104.372 69.667 105 73.6089C105.244 74.8647 105.174 76.1554 104.791 77.5507ZM133.883 80.4444C133.604 79.6769 133.255 79.5374 132.278 79.6072C132.941 80.863 133.255 82.1537 133.255 83.549C133.255 84.9095 133.709 86.2002 134.302 87.456C134.4 87.4122 134.485 87.3753 134.562 87.342C134.729 87.2692 134.856 87.2139 134.999 87.1421V85.7467C134.843 85.4855 134.695 85.2155 134.547 84.9456L134.546 84.9444L134.545 84.9432C134.397 84.6733 134.249 84.4033 134.092 84.1421C134.511 82.8862 134.302 81.6304 133.883 80.4444ZM59.6169 57.4231C58.5006 58.0859 57.8727 59.2022 57.8029 60.4929C56.9657 60.8766 56.3378 60.7022 55.8843 60.0394C55.4657 59.4115 55.2913 58.6789 55.7797 57.9464C55.8075 57.9018 55.8354 57.8564 55.8635 57.8105L55.8635 57.8105C56.0116 57.5688 56.1675 57.3144 56.3727 57.1092C59.3727 54.2836 62.8262 53.2371 66.8727 54.3534C67.082 54.4231 67.2913 54.5278 67.5006 54.6324C67.5704 54.6673 67.6401 54.7196 67.7273 54.785L67.7273 54.7851L67.7274 54.7851C67.8146 54.8505 67.9192 54.929 68.0587 55.0162C67.4657 55.958 66.6634 56.1673 65.7564 56.1324C64.4308 56.0627 63.1052 56.0627 61.8145 56.4813C61.082 56.7255 60.2797 57.0045 59.6169 57.4231ZM67.7087 49.3996C68.4412 49.6438 69.1738 49.295 69.8715 48.9461C70.4296 48.6322 70.7087 48.1787 70.7436 47.5508C70.0529 46.4509 68.9872 46.4388 68.0414 46.4281C67.6974 46.4243 67.3692 46.4206 67.0808 46.3647C66.7727 46.1708 66.487 45.9917 66.2115 45.8191L66.2113 45.8189C65.6446 45.4637 65.121 45.1356 64.5342 44.7601L63.8715 45.4229C64.1156 47.9694 65.8947 48.7717 67.7087 49.3996ZM99.3135 54.1784C98.9298 54.911 98.1624 55.1203 97.3601 55.0156C97.152 54.9859 96.9438 54.9498 96.7303 54.9128L96.7303 54.9128L96.7302 54.9128L96.7301 54.9128L96.7301 54.9128L96.73 54.9128L96.7299 54.9128C96.4425 54.8629 96.1453 54.8114 95.8252 54.7714C95.3019 54.1784 95.4415 53.4458 95.9647 52.9575C97.7787 51.1784 99.9763 50.411 102.418 50.5156C102.732 51.3179 102.383 51.6668 101.965 51.8412C100.814 52.3296 99.9066 53.0272 99.3135 54.1784ZM79.5358 52.085C79.2176 50.585 79.1067 50.0623 78.7979 49.7161C78.6328 49.531 78.411 49.3963 78.0706 49.1897C76.6753 49.992 76.0125 51.1083 76.5358 52.9223C77.7218 53.0967 78.8032 53.2013 79.5358 52.085ZM81.9079 53.4809C81.2451 55.0855 81.0707 55.1902 79.3614 54.946C79.0125 53.1669 79.5009 52.6088 81.4195 52.6437C81.5198 52.784 81.6085 52.9475 81.699 53.114L81.6991 53.1142C81.7659 53.2374 81.8338 53.3623 81.9079 53.4809ZM21.1748 58.2603C21.8851 57.2657 21.4382 56.5721 21.0029 55.8966C20.9038 55.7428 20.8054 55.5899 20.7213 55.4347C20.5254 55.4151 20.3516 55.4065 20.1504 55.3966H20.1503H20.1503H20.1502C19.993 55.3888 19.8191 55.3802 19.605 55.3649C19.5352 56.7603 19.8841 57.7021 21.1748 58.2603ZM109.883 42.6325C109.743 43.6093 109.534 44.3767 108.662 44.8302C108.025 44.4057 108.074 43.8229 108.12 43.2654C108.127 43.1816 108.134 43.0983 108.139 43.0163C108.139 42.729 108.254 42.4582 108.405 42.1025C108.474 41.9397 108.551 41.7592 108.627 41.5511C109.172 41.9995 109.51 42.3008 109.805 42.5631L109.883 42.6325ZM128.791 89.7253C129.093 89.6788 129.364 89.6323 129.636 89.5858C129.771 89.5625 129.907 89.5392 130.047 89.516C130.256 88.7136 129.803 88.3299 129.384 88.0508C128.298 87.3508 127.428 86.4168 126.557 85.4802L126.557 85.4802L126.557 85.4801C126.169 85.0633 125.781 84.646 125.372 84.2485C125.291 84.1735 125.212 84.093 125.132 84.0116C124.767 83.6387 124.385 83.2494 123.698 83.3067C123.558 83.4811 123.384 83.6904 123.105 84.0043C123.28 84.2888 123.452 84.5801 123.624 84.8729C124.001 85.5137 124.383 86.1616 124.814 86.7601C125.167 87.2693 125.534 87.7706 125.901 88.2725C127.093 89.9025 128.288 91.5374 129.035 93.4578C129.149 93.7302 129.395 93.9435 129.64 94.1554C129.771 94.2692 129.902 94.3825 130.012 94.5043C130.71 93.8415 131.233 93.3532 131.93 92.7253C130.815 91.9931 129.769 91.3306 128.723 90.6681L128.721 90.6671C128.721 90.3355 128.747 90.108 128.777 89.8497L128.791 89.7253ZM132.677 93.016C132.81 91.2492 132.926 89.6992 133.464 88.0844C134.434 88.5086 134.377 89.2225 134.323 89.9057C134.314 90.009 134.306 90.1115 134.302 90.2123C134.232 91.3285 134.057 92.4797 132.662 93.2123L132.677 93.016Z" fill="#212529"/>
</svg>
