<svg width="150" height="150" viewBox="0 0 150 150" fill="none" xmlns="http://www.w3.org/2000/svg">
<path d="M58.3029 65.1572C56.3175 67.1752 54.5599 68.9653 52.7697 70.7555C49.4173 74.1079 39.5552 84.0025 36.2028 87.3224C33.2735 90.2192 29.0748 90.2517 26.3407 87.5177C23.6067 84.7837 23.6718 80.5199 26.536 77.6556C31.3531 72.806 42.6798 61.4793 47.5295 56.6622C47.855 56.3367 48.1805 55.9787 48.6036 55.523C46.8785 53.7979 45.2837 52.1705 43.5912 50.5757C42.452 49.5016 41.9312 48.2973 42.4846 46.7676C42.9728 45.4331 44.0794 44.8147 45.9021 44.8147C52.1513 44.7821 58.4005 44.717 64.6498 44.6845C67.872 44.6519 69.0763 45.8562 69.0438 49.0785C69.0438 55.3277 69.0112 61.5769 69.0112 67.8261C69.0112 69.2583 68.6206 70.4625 67.2862 71.1786C66.0168 71.8621 64.6823 71.6343 63.5431 70.4951C61.8181 68.77 60.1581 67.0124 58.3029 65.1572Z" fill="#212529"/>
<path d="M127.273 21.25C121.577 21.608 116.369 22.0637 111.65 24.5374C106.605 27.1412 103.773 31.2422 102.602 36.6127C102.016 39.1514 101.951 41.8529 101.788 44.5544C101.658 46.0842 101.788 47.679 101.788 49.7946C97.8496 45.954 93.5207 43.5454 88.5734 42.3086C83.5936 41.0718 78.6463 40.4208 73.6013 40.3557C72.7225 49.7295 80.176 61.219 92.3815 61.219C93.0325 61.219 93.6835 61.219 94.4321 61.1539C93.4231 55.3929 89.7451 51.5522 85.5139 48.0696C93.6835 49.697 99.3794 55.5556 100.779 61.7723C100.779 61.8049 100.812 64.2785 100.812 66.1988C100.812 67.4357 101.853 68.4447 103.09 68.4447C104.327 68.4447 105.336 67.4357 105.336 66.1988V61.5445C105.336 56.5972 105.108 51.5848 105.466 46.6375C105.987 39.3793 109.567 33.9112 116.565 30.8517C112.757 35.6362 110.12 40.8114 110.706 47.0606C111.65 47.2884 112.594 47.4186 113.473 47.4186C117.704 47.4186 121.87 45.0752 124.376 41.1043C125.906 38.6958 126.85 36.0919 127.241 33.3253C127.533 31.4375 127.533 29.4847 127.533 27.4992C127.501 25.5463 127.338 23.5935 127.273 21.25Z" fill="#6FBA1F" fill-opacity="0.3"/>
<path d="M64.6496 124.883C63.8034 124.883 62.9571 124.72 62.1434 124.492C57.9773 123.321 55.1782 119.903 55.1456 115.542C55.0805 106.233 55.048 100.179 55.1456 90.8703C55.2107 85.7928 59.3118 81.6917 64.3892 81.6592C67.4813 81.6266 70.5734 81.6266 73.6654 81.6592C78.7429 81.6917 82.844 85.8253 82.9091 90.8703C83.0067 100.146 82.9742 106.233 82.9091 115.542C82.8765 119.903 80.1099 123.321 75.9113 124.492C75.0976 124.72 74.2513 124.883 73.4051 124.883H64.6496Z" fill="#6FBA1F"/>
<path d="M32.0701 124.883C31.2564 124.883 30.4427 124.753 29.6615 124.525C29.629 124.525 29.5639 124.492 29.5314 124.492C25.235 123.353 22.5661 119.936 22.501 115.477C22.4684 113.914 22.4684 112.319 22.501 110.757C22.5986 105.745 26.3416 101.872 31.3215 101.774C34.6739 101.709 38.0589 101.709 41.4114 101.774C46.2611 101.904 49.9715 105.647 50.1017 110.529C50.1668 112.157 50.1343 113.784 50.1017 115.412C50.0366 120.164 47.4328 123.386 42.8435 124.525C42.0624 124.72 41.2487 124.883 40.435 124.883H32.0701Z" fill="#6FBA1F"/>
<path d="M103.024 71.6669C99.9648 71.6669 97.4911 69.1933 97.4911 66.1663C97.4911 66.0036 97.4911 65.8408 97.4911 65.6781C96.71 65.6781 95.9614 65.7432 95.2128 65.8734C90.7537 66.6871 87.8895 70.365 87.8895 75.0845C87.8569 89.9264 87.8895 75.5076 87.8895 90.3495C87.8895 98.7144 87.8569 107.047 87.8895 115.412C87.922 120.164 90.5259 123.386 95.1151 124.525C95.1802 124.525 95.2453 124.558 95.3104 124.59C95.8312 124.785 96.3845 124.883 96.9378 124.883H106.344C106.898 124.883 107.451 124.753 108.004 124.59C113.244 123.125 115.523 120.131 115.523 114.663C115.523 107.665 115.523 100.667 115.523 93.6694C115.523 77.6883 115.523 90.9679 115.523 74.9868C115.523 70.4301 112.691 66.9475 108.557 65.971V66.1338C108.525 69.1607 106.051 71.6344 103.024 71.6669Z" fill="#6FBA1F"/>
</svg>
