<svg width="150" height="150" viewBox="0 0 150 150" fill="none" xmlns="http://www.w3.org/2000/svg">
<path fill-rule="evenodd" clip-rule="evenodd" d="M124.081 52.7709C126.022 54.2572 126.75 56.2287 126.75 58.6856C126.705 70.6759 126.71 82.6662 126.716 94.6436V94.6479V94.6522C126.718 98.6396 126.72 102.626 126.72 106.61C126.72 112.009 124.657 116.407 120.562 119.865L119.38 120.866C116.809 123.043 114.257 125.204 111.706 127.387H79.19C76.5512 118.651 78.6137 110.735 85.0137 104.062C89.0431 99.8722 93.4008 95.9936 97.7607 92.113L97.7608 92.113L97.761 92.1128L97.7633 92.1108L97.764 92.1101C99.1793 90.8504 100.595 89.5905 101.999 88.3197C104.365 86.1661 107.611 86.3481 109.613 88.532C111.584 90.7159 111.433 93.931 109.097 96.1149C106.084 98.932 103.031 101.709 99.9872 104.479L99.9777 104.488L99.9253 104.536C99.2208 105.177 98.5167 105.817 97.8137 106.458L97.8136 106.458C97.4799 106.761 97.1464 107.065 96.8431 107.398C95.9331 108.43 95.9028 109.704 96.7521 110.674C97.662 111.736 98.9663 111.887 100.089 110.886C102.638 108.625 105.15 106.326 107.653 104.035L107.654 104.034C108.307 103.436 108.96 102.838 109.613 102.242C109.886 101.989 110.159 101.733 110.432 101.477L110.432 101.476C110.978 100.964 111.524 100.452 112.07 99.967C114.587 97.7225 115.831 94.932 115.831 91.5348C115.831 87.9568 115.851 84.3754 115.871 80.7929V80.7922C115.912 73.6241 115.952 66.4514 115.831 59.2922C115.77 54.9851 117.772 51.7396 122.959 52.2856C123.241 52.4267 123.541 52.5495 123.831 52.6682C123.916 52.7027 123.999 52.7368 124.081 52.7709ZM111.053 72.1376C111.046 75.6637 111.038 79.1897 111.038 82.7082C109.599 82.4532 108.237 82.1982 106.84 81.9367C105.91 81.7627 104.965 81.5857 103.971 81.4039C103.971 79.9896 103.951 78.5641 103.932 77.1318V77.1311V77.1305V77.1304V77.1302C103.887 73.8325 103.841 70.4981 104.032 67.1784C104.244 63.6599 107.732 61.203 111.068 61.567C111.068 65.0855 111.061 68.6116 111.053 72.1376ZM64.2364 104.092C60.2357 99.9095 55.9112 96.0676 51.5823 92.2217C50.135 90.9358 48.6871 89.6495 47.2507 88.3499C44.8848 86.1963 41.6393 86.3783 39.6374 88.5622C37.6658 90.7461 37.8175 93.9916 40.153 96.1451C42.4794 98.3202 44.8294 100.46 47.181 102.601C48.6005 103.894 50.0206 105.187 51.4364 106.488L51.4365 106.488L51.4366 106.488C51.7702 106.792 52.1038 107.095 52.407 107.429C53.3473 108.46 53.3777 109.734 52.498 110.704C51.5578 111.736 50.2535 111.887 49.1615 110.917C47.1478 109.131 45.1698 107.321 43.1902 105.51L43.1895 105.51C42.0087 104.429 40.8273 103.349 39.6374 102.272C39.3644 102.019 39.0948 101.767 38.8251 101.514C38.2859 101.008 37.7467 100.503 37.1805 99.9973C34.663 97.7527 33.4194 94.9622 33.4194 91.565C33.4194 87.9871 33.3992 84.4059 33.379 80.8235V80.8231C33.3385 73.6547 33.2981 66.4819 33.4194 59.3224C33.4801 55.0153 31.4782 51.7699 26.2915 52.3158C26.2096 52.3499 26.1262 52.3841 26.0419 52.4185L26.0419 52.4185C25.7516 52.5373 25.4513 52.6601 25.1692 52.8011C23.228 54.2874 22.5 56.2286 22.5 58.7158C22.5455 70.7042 22.5398 82.6926 22.5341 94.681V94.6816C22.5322 98.6778 22.5303 102.674 22.5303 106.67C22.5303 112.069 24.5929 116.437 28.6877 119.925C30.1589 121.169 31.6302 122.42 33.1015 123.672C34.5724 124.923 36.0433 126.174 37.5142 127.417H70.0601C72.6989 118.682 70.6364 110.765 64.2364 104.092ZM45.3483 77.1611C45.3288 78.5939 45.3093 80.0197 45.3093 81.4345C44.6875 81.5482 44.0829 81.6581 43.4886 81.7662C41.7056 82.0904 40.0165 82.3975 38.242 82.7387C38.242 79.2203 38.2344 75.6942 38.2268 72.1681C38.2193 68.6421 38.2117 65.116 38.2117 61.5975C41.5785 61.2336 45.0363 63.6904 45.2486 67.2089C45.4389 70.5287 45.3934 73.8632 45.3483 77.1611Z" fill="#212529"/>
<path d="M64.5995 22.7121C64.5995 25.2297 64.5995 27.7472 64.5995 30.2951C64.5995 32.7519 64.5995 35.2391 64.5995 37.696C64.5995 40.2135 64.6298 42.7311 64.5692 45.3396C63.0829 45.3396 61.809 45.3699 60.5047 45.3396C59.2005 45.3092 57.8355 45.5519 56.4403 45.1273C56.4403 42.5187 56.4403 40.0012 56.4403 37.4533C54.1957 36.1187 52.0725 34.7538 49.8583 33.4496C47.6441 34.8448 45.5209 36.0884 43.3977 37.4533C43.2763 42.2154 43.428 46.8865 43.2763 51.7396C41.4261 51.7396 38.2109 51.7396 38.2109 51.7396V56.714C38.4233 56.714 38.6356 56.6836 38.8479 56.6836C41.5474 56.6836 44.1863 57.6542 46.2792 59.4135C48.554 61.3547 49.8886 63.9936 50.0706 66.9054C50.2829 70.4239 50.2223 73.8817 50.192 77.2485C50.1616 78.6134 50.1616 80.039 50.1616 81.404V84.4068C50.2829 84.4978 50.4043 84.6191 50.5256 84.7404C51.9209 86.0144 53.3768 87.3186 54.8024 88.5622C57.1682 90.6551 59.5341 92.7783 61.9 94.9926L70.3928 95.0229C70.3928 92.566 70.3928 89.8058 70.3928 89.7755L68.7549 89.9575C68.2696 89.9878 67.754 90.0485 67.2687 90.0485C63.4469 90.0485 59.8678 88.4712 57.2592 85.6201C54.4991 82.6172 53.0735 78.5224 53.4374 74.731L53.6194 72.6684L55.682 72.6988C58.9578 72.7291 62.264 73.1841 65.4185 74.003C67.3597 74.4883 69.2099 75.2466 70.8782 76.2779C70.9692 74.9433 71.0602 73.5784 71.3635 72.1831C72.2734 68.0883 74.518 65.0855 78.1274 63.2656C81.5852 61.476 85.3464 61.203 88.6829 60.9907L91.0184 60.8087L91.1094 63.1443C91.1094 63.5993 91.1397 64.0542 91.1397 64.4485C91.1701 65.3585 91.2307 66.2078 91.2307 67.0571V67.2694C91.2307 68.422 91.2307 69.6353 91.0487 70.9092C90.7454 72.9414 90.0478 74.8523 88.9862 76.5509C87.0449 79.6447 83.7995 81.5253 80.372 81.5253C79.6137 81.5253 78.8251 81.4343 78.1274 81.2523L77.5815 81.131C77.5511 82.4352 77.5815 83.7698 77.5815 85.1651C77.5815 86.1054 77.5815 87.0457 77.5815 88.0466C77.5815 88.2286 77.5815 92.202 77.5815 95.0532L87.2573 95.0835C89.6535 92.839 92.08 90.6855 94.4459 88.5622C95.8411 87.3186 97.2971 86.0144 98.7226 84.7404C98.844 84.6191 98.9653 84.5281 99.0866 84.4068V81.404C99.0866 80.039 99.0563 78.6134 99.0563 77.2485C99.026 73.8817 98.9653 70.4239 99.1776 66.9054C99.3293 64.0239 100.694 61.3547 102.969 59.4135C103.636 58.8372 104.364 58.3519 105.123 57.9576C105.123 52.6192 105.123 39.8192 105.123 32.4183C100.603 35.2088 96.3264 37.8173 92.0193 40.4562C92.0193 43.459 92.0193 46.4012 92.0193 49.3434C90.2601 49.3434 88.6222 49.3434 86.8326 49.3434C86.8326 44.9756 86.8326 40.7595 86.8326 36.4827C84.7701 36.1187 82.7682 36.604 80.827 36.1794C80.827 33.8439 80.827 31.5993 80.827 29.3548C80.827 27.0496 80.7966 24.7747 80.7966 22.4695" fill="#6FBA1F"/>
<path d="M88.8651 63.0231C85.3466 63.2354 82.1618 63.5084 79.2196 65.0553C76.0955 66.6629 74.3362 69.1804 73.6386 72.5169C73.2746 74.0941 73.2443 75.7624 73.1533 77.4003C73.0623 78.3406 73.1533 79.3415 73.1533 80.6458C70.7268 78.2799 68.0576 76.7937 64.9941 76.0354C61.9306 75.2771 58.8671 74.8828 55.7429 74.8221C55.1969 80.6155 59.8074 87.7131 67.3296 87.7131C67.7239 87.7131 68.1486 87.7131 68.6035 87.6827C67.9666 84.1339 65.722 81.7681 63.1135 79.6145C69.4832 80.8581 73.396 86.2875 72.6377 91.0496C72.6377 91.2922 72.577 93.1424 72.5467 95.0837C72.486 97.5102 72.486 100.149 72.6377 100.149C73.1836 100.119 75.3372 97.1462 75.3372 95.7813C75.3372 95.66 75.3372 95.4173 75.3372 95.114C75.3372 93.2941 75.3372 88.6837 75.3372 87.9254C75.3372 84.8619 75.2158 81.7681 75.4282 78.7349C75.7315 74.2458 77.9457 70.879 82.2831 68.9984C79.9476 71.9709 78.3097 75.1557 78.6737 79.0079C79.25 79.1292 79.8566 79.2202 80.3722 79.2202C82.9808 79.2202 85.5589 77.7946 87.0755 75.3074C88.0158 73.8212 88.6224 72.2136 88.8348 70.515C89.0168 69.3624 89.0168 68.1491 89.0168 66.9359C89.0168 65.6619 88.9258 64.4487 88.8651 63.0231Z" fill="#6FBA1F" fill-opacity="0.3"/>
</svg>
