<svg width="150" height="150" viewBox="0 0 150 150" fill="none" xmlns="http://www.w3.org/2000/svg">
<path d="M48.8945 121.037C49.0473 120.213 49.1695 119.388 49.3833 118.594C50.2387 115.355 52.316 113.064 55.2487 111.537C57.4482 110.406 59.831 109.551 62.0916 108.512C63.5274 107.871 64.9021 107.138 66.2768 106.374C67.01 105.946 67.4377 105.244 67.346 104.358C67.346 104.236 67.3155 104.052 67.3155 103.93C67.3766 102.128 67.4071 100.386 66.063 98.9201C65.7575 98.5841 65.6353 98.0953 65.452 97.6371C64.9021 96.2318 64.3828 94.8877 63.3747 93.6046C62 91.8634 61.6639 89.6944 62.7637 87.5254C62.947 87.1894 62.8859 86.6701 62.7942 86.2729C62.1833 83.4319 61.8167 80.5603 62.336 77.6582C63.2525 72.4038 66.8572 69.0739 72.3866 68.5546C74.3417 68.3713 76.3579 68.463 78.313 68.7685C79.4128 68.9518 80.4209 69.7766 81.4596 70.3264C81.704 70.4486 81.9178 70.6625 82.1622 70.7236C86.1641 71.6706 87.9359 74.8782 88.272 78.4219C88.5164 81.1102 88.1192 83.7374 87.5082 86.334C87.4166 86.7617 87.5082 87.4338 87.661 87.8309C88.5469 89.786 87.8748 92.9631 86.2252 94.4295C85.8892 94.735 85.6448 95.1932 85.4309 95.6209C84.6672 97.1483 83.9646 98.7063 83.2314 100.264C83.0787 100.6 82.9259 100.936 82.9259 101.272C82.8954 102.219 82.9565 103.166 82.8954 104.083C82.8037 104.999 83.2009 105.702 83.9035 106.13C85.156 106.893 86.439 107.565 87.7832 108.176C90.3798 109.398 93.1292 110.345 95.6037 111.751C98.5364 113.4 100.278 119.021 100.95 123.756C101.316 126.261 99.3612 128.461 96.8562 128.491C86.8667 128.491 62.7026 128.491 53.0186 128.461C50.7275 128.461 48.8945 126.597 48.8945 124.306V121.037Z" fill="#6FBA1F" fill-opacity="0.3"/>
<path d="M90.44 65.2553C91.2648 64.9193 92.0591 64.5832 92.7923 64.2472C93.7393 63.8195 94.6558 63.3613 95.5417 62.8725C95.5722 61.7727 95.5111 61.345 95.3278 61.1312C94.9918 60.8868 94.6252 60.6424 94.2281 60.398C91.9064 59.0844 89.3708 58.1985 86.9575 57.0682C85.7355 56.4878 84.5135 55.8463 83.3527 55.1436C82.6806 54.7465 82.314 54.0744 82.4057 53.2191C82.4973 52.3331 82.4057 51.4778 82.4362 50.5919C82.4668 50.2864 82.589 49.9503 82.7417 49.6448C83.4138 48.2091 84.0859 46.7427 84.7885 45.3375C84.9718 44.9403 85.2162 44.5126 85.5217 44.2072C87.0491 42.8325 87.6906 39.8387 86.8353 38.0363C86.652 37.6392 86.5909 37.0893 86.7131 36.6616C87.2935 34.2482 87.6601 31.8043 87.4462 29.2993C87.1407 26.0001 85.4606 23.0063 81.7336 22.1204C81.4892 22.0593 81.3059 21.876 81.0921 21.7538C80.1145 21.2344 79.1981 20.4402 78.1594 20.2874C76.357 20.0125 74.463 19.9208 72.6301 20.0736C67.4673 20.5624 64.1069 23.6783 63.2516 28.5662C62.7933 31.2545 63.1294 33.9427 63.6793 36.6005C63.7709 36.9671 63.8014 37.4559 63.6487 37.7614C62.61 39.7776 62.9155 41.7938 64.1986 43.4434C65.1456 44.6348 65.6344 45.8873 66.1232 47.2009C66.2759 47.5981 66.3981 48.0869 66.7036 48.3923C67.9561 49.767 67.9255 51.3861 67.8644 53.0663C67.8644 53.158 67.8644 53.2496 67.8644 53.3413C67.9866 54.2272 67.62 54.9298 66.8869 55.3269C65.6344 56.0601 64.3208 56.7016 62.9766 57.3126C60.8688 58.2902 58.6692 59.0539 56.5919 60.1231C55.7977 60.5508 55.0645 61.009 54.3924 61.5589C54.3313 61.8338 54.3313 62.231 54.3619 62.903C55.2478 63.3918 56.1642 63.8195 57.1113 64.2777C57.875 64.6138 58.6387 64.9498 59.4635 65.2858C60.716 65.8052 62.0296 66.3551 63.3432 66.9966L64.5346 67.6076C66.6119 66.1718 69.1475 65.2553 72.0496 64.9804C72.8134 64.9193 73.6076 64.8887 74.4019 64.8887C75.8682 64.8887 77.3651 65.0109 78.8926 65.2553C80.3895 65.4997 81.5503 66.2023 82.4668 66.7827C82.7417 66.9355 82.9861 67.1188 83.2 67.2104C83.3221 67.2715 83.4443 67.3632 83.5665 67.4243C84.0248 67.5465 84.4525 67.6992 84.8801 67.8825L86.7742 66.9355C87.9961 66.2634 89.2486 65.7441 90.44 65.2553Z" fill="#6FBA1F"/>
<path fill-rule="evenodd" clip-rule="evenodd" d="M125.618 70.7237C125.633 70.7314 125.648 70.739 125.663 70.7543C126.855 71.4569 127.557 72.74 127.496 74.0841V90.0917C127.496 106.802 118.087 116.914 104.249 121.496C104.065 120.427 103.79 119.327 103.516 118.319C102.141 113.431 100.094 110.193 97.4058 108.665C95.6339 107.657 93.8316 106.863 92.0597 106.13C91.1127 105.733 90.2268 105.336 89.3409 104.938C88.3939 104.511 87.4774 104.022 86.5915 103.533V102.525V101.822L86.62 101.761C87.1968 100.516 87.9486 98.8939 88.7299 97.3012C88.7725 97.2373 88.8003 97.1734 88.8235 97.1199C88.8336 97.0966 88.8429 97.0753 88.8521 97.0568C91.4488 94.5824 92.4263 90.1222 91.1738 86.7924C91.9375 83.5237 92.1819 80.7743 91.9375 78.1471C91.632 74.8478 90.3795 72.0984 88.3939 70.1433C89.5361 69.5813 90.7214 69.0838 91.9051 68.587C92.7157 68.2467 93.5256 67.9068 94.3203 67.5467C95.6645 66.9357 96.9781 66.2942 98.2306 65.561C98.9332 65.1639 99.3304 64.5223 99.2387 63.6975C99.2082 63.5753 99.2082 63.4226 99.2082 63.3004C99.2693 61.6507 99.2998 60.0011 98.0473 58.6264C97.8036 58.3827 97.6766 58.0224 97.5576 57.685C97.5274 57.5994 97.4978 57.5153 97.4669 57.435C96.9781 56.1214 96.4893 54.8689 95.5423 53.6775C94.2592 52.0584 93.9538 50.0422 94.9924 48.026C95.1452 47.7205 95.1146 47.2317 95.023 46.8651C94.4731 44.2074 94.1371 41.5191 94.5953 38.8308C95.4507 33.943 98.811 30.8575 103.974 30.3687C105.807 30.216 107.701 30.3077 109.503 30.5826C110.226 30.6889 110.89 31.1063 111.557 31.5253C111.848 31.7081 112.139 31.8912 112.436 32.0489C112.507 32.0897 112.575 32.1372 112.643 32.1847C112.779 32.2797 112.914 32.3748 113.077 32.4155C116.804 33.3014 118.484 36.2952 118.79 39.5945C119.004 42.0995 118.637 44.5129 118.057 46.9568C117.965 47.3539 118.057 47.9954 118.21 48.362C119.004 50.1949 118.393 53.1276 116.865 54.5023C116.56 54.8078 116.315 55.2355 116.132 55.6326C115.566 56.7648 115.02 57.9366 114.477 59.1001C114.347 59.3808 114.216 59.661 114.085 59.94C113.933 60.2455 113.81 60.5815 113.78 60.887C113.768 61.2418 113.775 61.5916 113.782 61.9404C113.793 62.4628 113.804 62.983 113.749 63.5142C113.658 64.3696 114.024 65.0417 114.696 65.4388C115.857 66.1414 117.079 66.7829 118.301 67.3634C119.179 67.7744 120.073 68.1531 120.966 68.5318C122.53 69.1945 124.094 69.8573 125.572 70.6932C125.587 70.7085 125.602 70.7161 125.618 70.7237ZM45.2894 120.304L45.2283 120.671H45.2589V121.007V121.343C31.6952 116.669 22.5 106.619 22.5 90.0917V74.023C22.5 72.6483 23.2026 71.3652 24.394 70.6932H24.4246C25.8857 69.8554 27.4587 69.1917 29.0326 68.5275C29.9266 68.1502 30.8209 67.7728 31.6952 67.3634C32.9171 66.7829 34.1391 66.1414 35.3 65.4388C35.972 65.0111 36.3386 64.3696 36.247 63.5142C36.2121 63.0259 36.217 62.5277 36.222 62.0252C36.2258 61.6474 36.2295 61.2672 36.2164 60.887C36.1859 60.5815 36.0637 60.2455 35.9109 59.94L35.9108 59.9397C35.2388 58.504 34.5667 57.0683 33.8642 55.6326C33.6809 55.2355 33.467 54.8078 33.131 54.5023C31.6035 53.1276 30.962 50.1949 31.7868 48.362C31.9396 47.9954 32.0312 47.3539 31.9396 46.9567C31.3286 44.5434 30.962 42.0995 31.1759 39.625C31.4814 36.3258 33.1615 33.332 36.8885 32.4461C37.0311 32.4053 37.1736 32.3103 37.3162 32.2152C37.3875 32.1677 37.4587 32.1202 37.53 32.0795C37.8269 31.9217 38.1182 31.7386 38.409 31.5559C39.0756 31.1368 39.7395 30.7195 40.4627 30.6131C42.2956 30.3076 44.1591 30.216 45.992 30.3993C51.1548 30.8575 54.5152 33.9735 55.2789 38.8308C55.7677 41.5496 55.4011 44.2074 54.8512 46.8651C54.7596 47.2317 54.729 47.7205 54.8818 48.0259C55.9204 50.0422 55.6149 52.0584 54.3319 53.6775C53.4282 54.8523 52.9404 56.0864 52.429 57.38L52.4073 57.435C52.3603 57.5445 52.3174 57.6561 52.2749 57.7666C52.1514 58.0874 52.0314 58.3992 51.8269 58.6264C50.5744 60.0011 50.6049 61.6202 50.666 63.3004C50.666 63.3615 50.6584 63.4302 50.6507 63.4989C50.6431 63.5677 50.6355 63.6364 50.6355 63.6975C50.5744 64.5223 50.941 65.1638 51.6436 65.561C52.9266 66.2942 54.2402 66.9357 55.5538 67.5467C56.3456 67.9065 57.1514 68.2429 57.9585 68.5797C59.2067 69.1006 60.4577 69.6227 61.6636 70.2349C60.1667 72.0984 59.1586 74.3896 58.7004 77.0473C58.0894 80.591 58.5782 83.9819 59.128 86.6397C57.845 89.7862 58.3338 93.1771 60.5027 95.896C61.1137 96.6902 61.5108 97.6678 61.9691 98.8592L62.0302 98.9814C62.0302 99.0425 62.0607 99.1036 62.0913 99.1647C62.2746 99.7146 62.6106 100.6 63.3438 101.395C63.6187 101.7 63.7104 102.22 63.6493 103.625C62.6717 104.144 61.633 104.663 60.5638 105.152C59.739 105.519 58.8836 105.885 57.9977 106.252C56.5314 106.863 55.0345 107.505 53.5376 108.268C49.5663 110.346 46.878 113.584 45.8088 117.647C45.7208 118.051 45.643 118.445 45.5695 118.818C45.5153 119.093 45.4635 119.355 45.4116 119.602C45.4079 119.628 45.4041 119.655 45.4003 119.682C45.3731 119.876 45.343 120.09 45.2894 120.304Z" fill="#212529"/>
</svg>
