<svg width="18" height="18" viewBox="0 0 18 18" fill="none" xmlns="http://www.w3.org/2000/svg">
<path fill-rule="evenodd" clip-rule="evenodd" d="M2.34047 6.85617C4.12779 10.7481 7.30827 13.8422 11.262 15.5188L11.2745 15.5241L12.0383 15.8646C13.011 16.2979 14.1542 15.9901 14.7778 15.1271L16.0522 13.3633C16.13 13.2556 16.1099 13.1058 16.0065 13.0223L13.7818 11.2275C13.6712 11.1383 13.5085 11.1591 13.4239 11.2732L12.5581 12.4416C12.3478 12.7254 11.968 12.824 11.6463 12.6784C8.68987 11.3404 6.31416 8.96473 4.97622 6.00832C4.83061 5.68656 4.92921 5.30681 5.21296 5.09653L6.38134 4.23067C6.4955 4.14606 6.51628 3.98343 6.42706 3.87284L4.63202 1.6478C4.54859 1.54438 4.39884 1.52429 4.29111 1.60207L2.51782 2.88222C1.64903 3.50941 1.34307 4.66226 1.78654 5.63771L2.33988 6.85487C2.34008 6.8553 2.34027 6.85574 2.34047 6.85617ZM10.6701 16.8971C6.3741 15.0735 2.91874 11.7105 0.976696 7.48076L0.975526 7.47821L0.421024 6.2585C-0.318076 4.63275 0.191852 2.71134 1.63983 1.66603L3.41313 0.385867C4.16725 -0.158539 5.21548 -0.0179346 5.79947 0.705959L7.59451 2.931C8.21907 3.70517 8.0736 4.84357 7.27444 5.43581L6.60494 5.93196C7.73585 8.12636 9.52824 9.91874 11.7226 11.0497L12.2188 10.3801C12.811 9.58098 13.9494 9.43552 14.7236 10.0601L16.9483 11.8549C17.6724 12.439 17.8129 13.4877 17.268 14.2418L15.9936 16.0055C14.9543 17.444 13.0489 17.957 11.4279 17.2347L10.6701 16.8971Z" fill="white"/>
</svg>
