<svg width="80" height="80" viewBox="0 0 80 80" fill="none" xmlns="http://www.w3.org/2000/svg">
<path d="M57.5519 5.70887C54.4972 5.32077 51.7178 5.03282 48.951 5.85911C46.0214 6.73548 44.1059 8.60089 42.9416 11.3302C42.3782 12.6197 42.0652 14.0344 41.7147 15.4366C41.4768 16.2253 41.4017 17.0892 41.1889 18.2034C39.4862 15.7621 37.458 14.0594 34.9541 12.9076C32.4502 11.7558 29.8962 10.9045 27.2295 10.3536C25.8148 15.2237 28.5942 22.0594 35.0543 23.2863C35.4048 23.3489 35.7554 23.4241 36.1435 23.4491C36.181 20.3067 34.6411 17.9029 32.7507 15.6244C36.9447 17.327 39.3735 21.0579 39.4361 24.5133L41.5394 26.4914C41.6896 25.7277 41.8399 24.9014 41.8774 24.7511C42.3782 22.1345 42.7663 19.4554 43.4674 16.8763C44.469 13.0829 46.9228 10.5539 50.9416 9.65254C48.4502 11.8059 46.5347 14.2723 46.2092 17.64C46.6849 17.8529 47.1732 18.0281 47.6364 18.1158C49.8774 18.5414 52.3187 17.7402 54.0339 15.8748C55.0856 14.7605 55.8493 13.471 56.325 12.0438C56.6756 11.0672 56.8633 10.0406 57.0637 9.00152C57.2389 7.99995 57.3641 6.94831 57.5519 5.70887Z" fill="#6FBA1F"/>
<path d="M66.0534 31.3739C65.0018 27.3551 62.6856 24.3254 58.9172 22.4349C56.3132 21.1329 53.659 20.1188 50.6794 20.219C48.4759 20.2941 46.4102 20.7573 44.4572 21.6713C44.382 22.1094 44.2944 22.5351 44.2193 22.9608C44.1066 23.6243 43.9814 24.3004 43.8562 24.9639C46.7983 27.931 49.7279 30.8982 52.6825 33.8653C54.1223 35.3051 54.886 37.0328 54.5855 39.0609C54.2975 41.014 53.1207 42.3786 51.2678 43.0296C49.3022 43.7182 47.3993 43.4678 45.8343 42.0155C43.9439 40.2503 42.1285 38.3974 40.2881 36.5821C39.0612 35.3677 37.8218 34.1407 36.5949 32.9263C36.4446 32.7886 36.2944 32.6509 35.9564 32.3254C35.3805 32.9889 34.8547 33.665 34.2537 34.2659C29.8593 38.6853 25.4525 43.0672 21.0456 47.4615C20.2568 48.2378 20.019 49.1767 20.3445 50.2159C20.6575 51.1924 21.296 51.8684 22.3351 52.0938C23.3617 52.3066 24.1629 51.8684 24.864 51.1673C27.3179 48.726 29.7717 46.2847 32.2381 43.8434C33.8406 42.2534 35.4306 40.6634 37.0331 39.086C37.7717 38.3598 38.598 38.4349 39.224 39.2487C39.5495 39.6619 39.5996 40.0875 39.2866 40.5132C39.1113 40.7636 38.886 40.9889 38.6606 41.2143C34.8296 45.0578 30.9861 48.8888 27.1551 52.7198C27.0174 52.8575 26.8922 52.9827 26.7545 53.1204C25.5902 54.3223 25.5151 55.9123 26.5667 56.9639C27.6809 58.0781 29.4462 58.0656 30.598 56.9013C34.2913 53.183 37.972 49.4522 41.6528 45.7339C42.0659 45.3207 42.4665 44.895 42.9047 44.5069C43.5057 43.9811 43.9814 44.0312 44.5949 44.6321C45.2334 45.2581 45.3085 45.7964 44.8327 46.3849C44.6575 46.5977 44.4572 46.7855 44.2694 46.9733C40.3507 50.9044 36.4196 54.8231 32.501 58.7542C31.3867 59.881 31.2991 61.521 32.2756 62.5727C33.2772 63.6619 34.9924 63.7119 36.0941 62.6728C36.7326 62.0719 37.3335 61.4334 37.9595 60.8199C41.4274 57.352 44.8953 53.8841 48.3633 50.4162C49.0644 49.7151 49.6027 49.7276 50.2788 50.4412C50.9172 51.1173 50.9047 51.6055 50.1911 52.3191C46.1849 56.3379 42.1661 60.3442 38.1598 64.363C36.8703 65.665 36.9454 67.568 38.3226 68.557C38.598 68.7573 38.936 68.8825 39.249 69.0453C39.6622 69.0453 40.0878 69.0453 40.501 69.0453C41.127 68.582 41.828 68.2065 42.3789 67.6556C48.7889 61.2831 55.1363 54.8356 61.5964 48.5007C64.7514 45.3958 66.1661 41.6274 66.5542 37.3457C66.5792 37.0954 66.6293 36.8575 66.6669 36.6196C66.6669 36.0312 66.6669 35.4553 66.6669 34.8669C66.4665 33.7026 66.3414 32.5132 66.0534 31.3739Z" fill="#212529"/>
<path d="M40.1509 27.9562L38.0476 25.9781L37.6595 25.615L35.9568 25.4648C35.4686 25.4147 35.0429 25.3396 34.6673 25.2645C31.5124 24.6635 28.8207 22.8607 27.0304 20.1565C21.3715 20.6823 15.9255 24.1252 14.0852 30.698C13.7346 31.9374 13.5844 33.2269 13.334 34.4914C13.334 35.3302 13.334 36.1565 13.334 36.9953C13.3715 37.2582 13.4341 37.5211 13.4592 37.784C13.6845 40.2754 14.1478 42.7042 15.3622 44.9202C15.8629 45.8341 16.5265 46.6604 17.2025 47.662C23.6251 41.2394 29.8974 34.9671 36.1947 28.6698C36.3199 28.795 36.4576 28.9202 36.5953 29.0454C40.0758 32.5258 43.5437 36.0188 47.0241 39.4992C47.262 39.7371 47.4874 39.9875 47.7503 40.1878C48.6517 40.8639 49.6407 40.939 50.6423 40.4507C51.6188 39.975 52.0445 39.1236 52.032 38.0469C52.032 37.2207 51.6438 36.5822 51.0805 36.0188C48.4764 33.4147 45.8598 30.8232 43.2557 28.2191L42.8301 30.4601L40.1509 27.9562Z" fill="#6FBA1F" fill-opacity="0.3"/>
</svg>
