<svg width="22" height="19" viewBox="0 0 22 19" fill="none" xmlns="http://www.w3.org/2000/svg">
<path fill-rule="evenodd" clip-rule="evenodd" d="M14.0215 0.343523C14.5298 0.256441 15.0991 0.227365 15.6349 0.318007C16.5918 0.47989 17.4756 0.924618 18.1743 1.59138C18.631 1.60171 19.0798 1.51173 19.4769 1.38347C19.813 1.27492 20.097 1.14385 20.2959 1.04021C20.3948 0.988681 20.4712 0.944723 20.5209 0.914963C20.5457 0.900107 20.5638 0.888862 20.5745 0.882071L20.584 0.87601C20.8808 0.678282 21.276 0.716765 21.5289 0.968271C21.7818 1.21984 21.8226 1.61476 21.6263 1.91266C21.4186 2.22795 21.1302 2.79002 20.8072 3.41978C20.7564 3.5188 20.7047 3.61949 20.6524 3.72116C20.4671 4.08113 20.2771 4.44494 20.1 4.75707C19.9888 4.95306 19.8699 5.15204 19.75 5.32398V5.59775C19.7576 6.60338 19.6423 7.60377 19.4082 8.57698C19.2609 9.18933 19.0666 9.79092 18.8264 10.3763C18.204 11.893 17.2856 13.2704 16.1249 14.4282C14.9641 15.5859 13.5843 16.5008 12.0661 17.1193C10.5492 17.7373 8.92443 18.0471 7.28658 18.0306C4.91227 18.0327 2.5879 17.3486 0.593179 16.0607C0.299378 15.871 0.175679 15.5035 0.295015 15.1747C0.414352 14.846 0.745045 14.6434 1.09212 14.6863C1.39248 14.7235 1.69489 14.7416 1.99754 14.7407C3.08499 14.7376 4.15173 14.4973 5.12559 14.0447C4.81604 13.9038 4.52051 13.73 4.24435 13.5253C3.43264 12.9234 2.82873 12.0834 2.51666 11.1223C2.43556 10.8725 2.491 10.5985 2.66282 10.3999C2.66589 10.3964 2.669 10.3929 2.67214 10.3894C2.48861 10.2257 2.31688 10.0475 2.15878 9.8559C1.44747 8.9937 1.05579 7.91226 1.05001 6.79453L1.04999 6.79065L1.05 6.74065C1.05 6.47478 1.19075 6.22879 1.41995 6.09407C1.47806 6.05992 1.53964 6.03421 1.60299 6.01697C1.26466 5.34189 1.08871 4.59644 1.09 3.84018C1.0896 2.98342 1.3134 2.14145 1.73916 1.39795C1.86207 1.18331 2.0829 1.04307 2.32943 1.0231C2.57595 1.00312 2.81648 1.10598 2.97234 1.29802C3.9349 2.48403 5.13619 3.45429 6.49817 4.14576C7.19831 4.50121 7.93286 4.77891 8.68866 4.97534C9.1124 5.08547 9.54281 5.17006 9.97758 5.22849C9.95843 4.50523 10.1012 3.78236 10.401 3.11443C10.8407 2.1346 11.5931 1.32843 12.5404 0.822334C12.9415 0.608005 13.474 0.437294 14.0215 0.343523ZM2.74327 7.89102C2.87292 8.25591 3.06579 8.59823 3.31584 8.90133C3.80717 9.49687 4.48911 9.90443 5.24633 10.0551C5.58362 10.1222 5.83205 10.41 5.84908 10.7535C5.8661 11.097 5.64735 11.408 5.31836 11.5082C5.04586 11.5911 4.76668 11.6489 4.48433 11.681C4.67091 11.9215 4.89039 12.1369 5.1378 12.3204C5.69898 12.7365 6.37593 12.9673 7.07444 12.9808C7.39135 12.9869 7.67022 13.1916 7.77105 13.4921C7.87187 13.7926 7.77289 14.124 7.52378 14.3201C6.47461 15.1456 5.26141 15.7213 3.97586 16.0151C5.04135 16.3564 6.15879 16.532 7.28908 16.5306L7.29779 16.5306C8.73785 16.5456 10.1664 16.2735 11.5001 15.7302C12.8339 15.1868 14.0459 14.3832 15.0656 13.3661C16.0852 12.3491 16.8919 11.1391 17.4387 9.80681C17.6497 9.29258 17.8204 8.76412 17.9498 8.22621C18.1556 7.37044 18.2569 6.49078 18.25 5.60651L18.25 5.60065V5.07065C18.25 4.88879 18.3161 4.71314 18.4359 4.57636C18.5052 4.49732 18.6264 4.31476 18.7954 4.01686C18.956 3.73374 19.1338 3.39383 19.3187 3.03465C19.3299 3.01293 19.3411 2.99109 19.3524 2.96915C18.8728 3.0733 18.3292 3.12789 17.7594 3.06631C17.579 3.0468 17.4117 2.96252 17.2886 2.82908C16.7858 2.28374 16.1161 1.92073 15.3847 1.79699C15.0602 1.74209 14.6678 1.75465 14.2747 1.82199C13.8476 1.89515 13.4759 2.02317 13.2472 2.14534C12.5929 2.49491 12.0732 3.05175 11.7695 3.72854C11.4658 4.40533 11.3953 5.16377 11.5691 5.88493C11.6245 6.11484 11.5683 6.35742 11.4173 6.53945C11.2663 6.72148 11.0383 6.82164 10.8021 6.80969C9.95869 6.76703 9.12421 6.63838 8.31134 6.42711C7.45144 6.20362 6.61571 5.88767 5.81913 5.48326C4.64635 4.88785 3.5783 4.11075 2.65346 3.18306C2.61127 3.39868 2.58985 3.6187 2.59 3.84015L2.59 3.84207C2.58895 4.39279 2.7241 4.93522 2.98341 5.42107C3.24272 5.90692 3.61814 6.32111 4.07626 6.62676C4.35428 6.81226 4.47601 7.15934 4.37475 7.47786C4.2735 7.79638 3.9737 8.00946 3.6396 8.00037C3.33701 7.99214 3.03694 7.95533 2.74327 7.89102Z" fill="black"/>
</svg>
