<svg width="24" height="16" viewBox="0 0 24 16" fill="none" xmlns="http://www.w3.org/2000/svg">
<path fill-rule="evenodd" clip-rule="evenodd" d="M23.405 12.865C22.8611 11.7695 22.1444 10.7688 21.2825 9.90128C20.9892 9.56032 20.6453 9.22383 20.3768 8.96116L20.3393 8.92446C20.2008 8.78895 20.0864 8.67644 19.9928 8.5795C21.1713 6.94074 22.18 5.18595 23.003 3.34222L23.0362 3.26783L23.0595 3.18976C23.1676 2.82687 23.2922 2.1368 22.8515 1.51317C22.396 0.868589 21.6666 0.752342 21.1782 0.752342H18.9311C18.4627 0.730866 17.9988 0.857507 17.6058 1.11498C17.2098 1.37439 16.9069 1.75278 16.7402 2.1951C16.2563 3.34779 15.6508 4.4442 14.9347 5.46598V2.83269C14.9347 2.4923 14.9027 1.92289 14.5382 1.44229C14.1018 0.866854 13.4707 0.752342 13.0326 0.752342H9.46708C9.00771 0.741718 8.56094 0.905974 8.2176 1.21259C7.866 1.52659 7.65052 1.96521 7.61687 2.43543L7.61369 2.47997V2.52463C7.61369 3.01011 7.80606 3.36822 7.95975 3.59344C8.02856 3.69427 8.10216 3.78606 8.14865 3.84403L8.15938 3.85741C8.20895 3.91923 8.24204 3.96049 8.27525 4.00566C8.3626 4.12448 8.48824 4.30768 8.52379 4.78174V6.2547C7.9091 5.24423 7.26066 3.89957 6.77276 2.46344L6.76527 2.4414L6.75697 2.41965C6.63532 2.10103 6.4402 1.63743 6.04941 1.28266C5.59288 0.868212 5.0529 0.752342 4.56182 0.752342H2.28187C1.78506 0.752342 1.18613 0.868566 0.739237 1.33999C0.299773 1.80358 0.25 2.35907 0.25 2.65442V2.78755L0.278039 2.91769C0.909544 5.84881 2.21076 8.59368 4.07946 10.9377C4.92668 12.2737 6.07468 13.3936 7.43213 14.2075C8.81124 15.0345 10.3671 15.5219 11.9715 15.6297L12.0133 15.6325H12.0553C12.7811 15.6325 13.5378 15.5699 14.1068 15.1907C14.8744 14.6792 14.9347 13.8936 14.9347 13.5021V12.3642C15.1317 12.5234 15.3761 12.7378 15.6753 13.0259C16.037 13.3879 16.325 13.7016 16.572 13.9754L16.7038 14.122L16.7046 14.1228C16.8964 14.3364 17.0852 14.5467 17.2571 14.7195C17.4732 14.9367 17.7396 15.1761 18.0745 15.3529C18.4371 15.5444 18.8177 15.631 19.222 15.631H21.5035C21.9841 15.631 22.6735 15.5173 23.1582 14.9554C23.6864 14.343 23.6461 13.5924 23.48 13.053L23.4501 12.956L23.405 12.865ZM17.6857 12.9706C17.4289 12.6859 17.1192 12.3484 16.7278 11.9571L16.7246 11.9539C15.3685 10.6464 14.7348 10.4186 14.2868 10.4186C14.0485 10.4186 13.7848 10.4454 13.6137 10.6585C13.5329 10.7591 13.4905 10.8805 13.4667 11.007C13.4429 11.1333 13.4347 11.2816 13.4347 11.4505V13.5021C13.4347 13.7569 13.3928 13.8639 13.275 13.9425C13.118 14.0471 12.7825 14.1319 12.0637 14.1325C10.6993 14.0395 9.37641 13.6244 8.20349 12.9211C7.02817 12.2164 6.03709 11.2425 5.31187 10.0797L5.30398 10.0671L5.29464 10.0554C3.55337 7.88813 2.34003 5.34571 1.7503 2.6291C1.7535 2.49814 1.78187 2.42045 1.82784 2.37195C1.87521 2.32198 1.98999 2.25234 2.28187 2.25234H4.56182C4.81544 2.25234 4.9467 2.30751 5.04117 2.39327C5.14827 2.4905 5.24116 2.65561 5.35401 2.95042C5.91362 4.5964 6.67038 6.13568 7.387 7.26751C7.74518 7.83323 8.09769 8.30409 8.41529 8.63685C8.57383 8.80295 8.72932 8.94063 8.8777 9.03848C9.02132 9.13319 9.18414 9.20789 9.35158 9.20789C9.43994 9.20789 9.54328 9.1988 9.64279 9.15475C9.74983 9.10735 9.83291 9.02837 9.89158 8.92253C9.99536 8.7353 10.0238 8.45798 10.0238 8.0947V4.73099L10.0233 4.7231C9.97146 3.90476 9.72439 3.44443 9.48381 3.11718C9.43108 3.04546 9.37909 2.98068 9.33359 2.92399L9.32113 2.90846C9.27117 2.84616 9.23142 2.79582 9.19876 2.74795C9.13891 2.66024 9.11571 2.59909 9.11381 2.53356C9.12162 2.45578 9.15828 2.38361 9.21675 2.33139C9.27744 2.27719 9.35686 2.24897 9.43816 2.25234H13.0326C13.2387 2.25234 13.3081 2.30262 13.343 2.34868C13.3923 2.4137 13.4347 2.54893 13.4347 2.83269V7.3613C13.4347 7.89924 13.6827 8.26339 14.0428 8.26339C14.4572 8.26339 14.7559 8.01195 15.2783 7.4896L15.287 7.48088L15.2948 7.47135C16.4656 6.04356 17.4225 4.45298 18.1347 2.74943L18.1392 2.73666C18.1928 2.58613 18.2941 2.45726 18.4278 2.3697C18.5614 2.28215 18.72 2.24072 18.8794 2.25175L18.8881 2.25234H21.1782C21.4905 2.25234 21.5933 2.33183 21.6265 2.37884C21.6618 2.42885 21.6864 2.53604 21.6264 2.74625C20.8053 4.58266 19.7899 6.32579 18.598 7.94636L18.5905 7.95784C18.4748 8.13478 18.3479 8.33056 18.3295 8.55539C18.3098 8.7968 18.4143 9.01625 18.597 9.2515C18.7302 9.44844 19.0049 9.71733 19.2836 9.99012L19.3099 10.0158C19.6021 10.3018 19.9186 10.6116 20.1727 10.9116L20.1795 10.9195L20.1869 10.9269C20.9444 11.6825 21.5743 12.556 22.052 13.5132C22.1283 13.7738 22.0816 13.907 22.0223 13.9757C21.953 14.0561 21.7976 14.131 21.5035 14.131H19.222C19.0438 14.131 18.9063 14.0959 18.7749 14.0265C18.638 13.9542 18.4972 13.8392 18.3206 13.6617C18.1784 13.5187 18.023 13.3457 17.8334 13.1348C17.7864 13.0825 17.7373 13.0277 17.6857 12.9706Z" fill="#6FBA1F"/>
</svg>
