<svg width="80" height="80" viewBox="0 0 80 80" fill="none" xmlns="http://www.w3.org/2000/svg">
<path d="M31.6051 32.4771C27.6632 30.2915 23.7408 28.1058 19.7793 25.9202C20.1501 25.2372 20.5209 24.5737 20.8916 23.8907C22.082 21.7636 23.2529 19.617 24.4628 17.5094C25.1653 16.2605 26.0435 15.1481 27.2144 14.309C28.0925 13.665 29.0487 13.3138 30.1806 13.3333C34.5323 13.4113 38.8646 13.4309 43.2163 13.4894C44.0359 13.4894 44.8555 13.4894 45.6751 13.4894C45.6751 13.5284 45.6751 13.548 45.6947 13.587C45.6166 13.6065 45.5581 13.626 45.48 13.6455C42.8455 14.3285 40.9526 15.9678 39.6451 18.3095C36.9912 22.9345 34.3762 27.5789 31.7612 32.2039C31.7222 32.2819 31.6637 32.36 31.6051 32.4771Z" fill="#6FBA1F" fill-opacity="0.3"/>
<path d="M49.9688 38.429C53.7741 36.0482 57.5794 33.6869 61.4043 31.3062C61.4628 31.4037 61.5214 31.4623 61.5604 31.5403C63.1216 34.0382 64.6827 36.5556 66.2439 39.0534C67.044 40.3414 67.6685 41.6879 67.9222 43.1905C68.0588 44.0101 68.0393 44.8102 67.7856 45.6103C67.7465 45.7469 67.688 45.9031 67.6099 46.0397C65.034 50.6061 62.4386 55.1725 59.8431 59.7389C59.8041 59.817 59.7651 59.8755 59.687 59.934C59.7651 59.5242 59.8626 59.1144 59.9212 58.7046C60.2334 56.7141 59.8822 54.8212 58.9259 53.0844C58.2624 51.8355 57.4623 50.6646 56.7208 49.4547C54.5156 45.864 52.3105 42.2929 50.1249 38.7022C50.0858 38.6046 50.0273 38.5265 49.9688 38.429Z" fill="#6FBA1F" fill-opacity="0.3"/>
<path d="M44.1329 29.6084C44.0744 29.4913 44.0354 29.4133 43.9963 29.3352C42.5913 26.8568 41.1862 24.359 39.7812 21.8806C39.6641 21.6855 39.6641 21.5294 39.7812 21.3342C40.6008 20.0853 41.3619 18.8168 42.24 17.6069C43.4889 15.8701 45.2453 14.9334 47.3528 14.6602C48.6018 14.4846 49.8312 14.6407 50.8264 15.5189C51.0996 15.7531 51.3533 16.0458 51.568 16.358C52.895 18.329 54.1829 20.2999 55.4904 22.2904C55.549 22.388 55.627 22.4856 55.6856 22.5832C57.0711 21.9977 58.4176 21.4318 59.8422 20.8268C59.8031 20.9244 59.7836 21.0025 59.7446 21.061C57.7931 24.6322 55.8612 28.1838 53.9097 31.755C53.8317 31.9111 53.7341 31.9697 53.5585 31.9697C49.4019 31.9111 45.2648 31.8526 41.1082 31.794C41.0106 31.794 40.913 31.7745 40.7959 31.716C41.9278 30.9744 43.0206 30.2914 44.1329 29.6084Z" fill="#6FBA1F"/>
<path d="M46.9428 64.2079C46.7867 65.691 46.6306 67.1156 46.4745 68.6182C46.3769 68.4816 46.3184 68.4036 46.2793 68.3255C44.1327 64.9885 42.0057 61.6515 39.8591 58.295C39.7615 58.1389 39.742 58.0023 39.8395 57.8462C41.9081 54.197 43.9571 50.5672 46.0257 46.918C46.0647 46.8595 46.1037 46.8009 46.1818 46.6838C46.2403 47.601 46.2989 48.4402 46.3769 49.2988C46.3964 49.6696 46.4355 50.0403 46.4355 50.4111C46.4355 50.6063 46.533 50.6648 46.7282 50.6648C49.5578 50.6258 52.3874 50.6063 55.217 50.5672C55.4902 50.5672 55.6658 50.6258 55.822 50.8795C56.6611 52.265 57.5002 53.6701 58.0661 55.1922C58.8467 57.2998 58.6516 59.3683 57.6563 61.3588C56.9343 62.7834 55.7439 63.5444 54.1242 63.6225C52.5045 63.7006 50.9043 63.8762 49.2846 63.9933C48.6796 64.0323 48.0552 64.0713 47.4502 64.1299C47.2746 64.1689 47.1185 64.1884 46.9428 64.2079Z" fill="#6FBA1F"/>
<path d="M16.2285 53.1822C14.4917 49.9623 14.3356 45.513 15.0966 41.3759C15.8577 37.2388 17.0676 33.3164 18.7654 29.55C26.3175 32.2821 32.6207 41.9613 28.4056 51.0161C28.1714 51.504 27.9568 51.9918 27.6445 52.4992C23.566 49.6696 21.8487 45.5715 20.6193 41.1612C18.6873 49.2598 23.2342 54.8019 28.5617 58.3731C29.4008 58.939 32.8354 60.6368 32.8354 60.6368C32.8354 60.6368 35.1967 61.632 37.5189 62.881C38.1434 63.2127 38.5337 64.6373 31.6645 63.4274C29.1862 62.9785 25.0881 61.2027 24.1709 60.6953C19.8582 58.3341 17.9848 56.4021 16.2285 53.1822Z" fill="#212529"/>
</svg>
