<svg width="80" height="80" viewBox="0 0 80 80" fill="none" xmlns="http://www.w3.org/2000/svg">
<path d="M21.6002 59.0933C21.7069 58.6667 21.7602 58.1867 21.8669 57.76C22.2935 56 23.4135 54.72 25.0135 53.92C26.1869 53.28 27.4669 52.8533 28.6402 52.2667C29.3869 51.8933 30.1335 51.52 30.8802 51.0933C31.3069 50.8267 31.5202 50.4533 31.4669 49.92C31.4669 49.8667 31.4669 49.8133 31.4669 49.76C31.5202 48.8 31.5202 47.84 30.7735 47.04C30.6135 46.88 30.5602 46.56 30.4535 46.3467C30.1335 45.6 29.8669 44.8533 29.3335 44.16C28.5869 43.2 28.4269 42.0267 29.0135 40.8533C29.1202 40.6933 29.0669 40.3733 29.0135 40.16C28.6935 38.6133 28.4802 37.0667 28.7469 35.4667C29.2269 32.5867 31.1469 30.7733 34.0802 30.5067C35.1469 30.4 36.2135 30.4533 37.2269 30.6133C37.8135 30.72 38.3469 31.1467 38.8802 31.4667C38.9869 31.52 39.0935 31.6267 39.2535 31.68C41.3869 32.2133 42.3469 33.92 42.5069 35.8933C42.6669 37.3333 42.4535 38.7733 42.0802 40.2133C42.0269 40.48 42.0269 40.8 42.1335 41.0133C42.6135 42.08 42.2402 43.84 41.3869 44.64C41.2269 44.8 41.0669 45.0667 40.9602 45.28C40.5869 46.1333 40.1602 46.9333 39.7869 47.7867C39.7335 47.9467 39.6269 48.16 39.6269 48.32C39.6269 48.8533 39.6269 49.3333 39.6269 49.8667C39.5735 50.3467 39.7869 50.7733 40.1602 50.9867C40.8002 51.4133 41.4935 51.7867 42.2402 52.1067C43.6269 52.7467 45.0669 53.28 46.4002 54.08C48.5335 55.3067 49.4935 57.28 49.4402 59.84C49.2802 59.84 49.0669 59.8933 48.9069 59.8933C39.9469 59.8933 30.9869 59.8933 22.0269 59.8933C21.8669 59.8933 21.7069 59.84 21.5469 59.84C21.6002 59.5733 21.6002 59.36 21.6002 59.0933Z" fill="#6FBA1F" fill-opacity="0.3"/>
<path fill-rule="evenodd" clip-rule="evenodd" d="M53.9729 13.0442L53.9727 13.0441C53.3925 12.6655 52.8058 12.2827 52.2127 11.8935C52.9594 9.28016 54.4527 6.98683 56.3194 4.96016C56.8527 4.3735 57.7061 4.3735 58.2927 5.0135C59.9461 6.9335 61.3327 8.96016 62.1327 11.4135C62.1861 11.6802 62.0794 12.1602 61.8661 12.3202C61.406 12.5962 60.9504 12.8678 60.4979 13.1375L60.4972 13.138L60.4971 13.138L60.4971 13.138L60.4971 13.138L60.4971 13.138L60.4969 13.1381L60.4969 13.1381L60.4965 13.1384L60.4963 13.1385C59.3756 13.8066 58.2742 14.4632 57.1727 15.1468C56.1289 14.4509 55.0623 13.755 53.9731 13.0443L53.9729 13.0442ZM54.6939 54.743H54.694C55.0613 54.767 55.4267 54.7908 55.786 54.8267C55.786 54.1492 55.8028 53.4632 55.8198 52.7722V52.7722V52.7722V52.7721V52.7721V52.7721V52.772V52.772V52.772V52.7719V52.7718V52.7717V52.7716V52.7716V52.7715V52.7714V52.7713C55.8455 51.722 55.8715 50.661 55.8394 49.6C55.6794 46.0267 53.0127 42.72 49.5994 41.7067C48.5327 41.3867 47.786 41.5467 47.466 42.6667C47.0394 44.0534 46.666 45.4934 46.666 46.88C46.7194 50.9334 48.906 53.76 52.5327 54.5067C53.24 54.6482 53.9708 54.6958 54.6939 54.743ZM58.5259 53.117C58.5232 53.6684 58.5206 54.2209 58.506 54.7734C58.666 54.7734 58.826 54.7793 58.986 54.7852C59.306 54.7971 59.626 54.8089 59.946 54.7734C66.1327 54.6134 69.8127 48.3734 67.0927 42.7734C66.506 41.6 65.9727 41.3334 64.7994 41.76C61.4394 42.9334 59.306 45.28 58.7727 48.7467C58.5399 50.1821 58.5329 51.6457 58.5259 53.117ZM58.5593 42.8801C62.2926 39.3601 64.6926 38.4002 67.5726 39.3601C67.9993 37.2268 67.946 35.2002 66.986 33.2802C66.5593 32.4268 65.9726 32.1068 65.0126 32.4268C63.0926 33.0135 61.386 33.9202 59.8393 35.1468C58.9326 35.8935 58.3993 36.6935 58.5593 37.9201C58.6302 38.487 58.6069 39.0304 58.5832 39.5815L58.5832 39.5816C58.5713 39.86 58.5593 40.1404 58.5593 40.4268V42.8801ZM55.8927 42.7733C53.2794 40.3733 50.7194 38.2934 46.8794 39.2533C46.4527 37.1734 46.5594 35.0934 47.6261 33.12C47.9994 32.4267 48.586 32.16 49.386 32.4267C51.6794 33.12 53.706 34.1867 55.4127 35.8934C55.626 36.1067 55.8927 36.4267 55.8927 36.6934V42.7733ZM63.5727 20.8534C64.8527 20.32 66.1327 20.16 67.5727 20.9067C67.9461 18.6667 67.8927 16.6934 66.9327 14.7734C66.5594 13.9734 65.9727 13.6 65.0661 13.8667C62.7727 14.56 60.7461 15.6267 59.0394 17.3334C58.8261 17.5467 58.5594 17.8134 58.5594 18.0267V23.2534C58.9752 23.0518 59.382 22.8532 59.7828 22.6575L59.7879 22.655L59.7908 22.6536L59.7913 22.6534L59.7915 22.6533C61.0839 22.0223 62.3128 21.4224 63.5727 20.8534ZM67.5727 30.0268C64.5726 29.1444 62.3389 30.4519 60.0263 31.8055L60.0262 31.8056L60.0262 31.8056C59.5432 32.0883 59.0569 32.373 58.5594 32.6402V27.3068C58.5594 27.0935 58.7727 26.8802 58.9861 26.6668C60.6927 24.9068 62.8261 23.7868 65.1194 23.0935C65.9727 22.8268 66.5594 23.2002 66.9327 23.9468C67.9461 25.9202 67.9994 27.9468 67.5727 30.0268ZM46.8793 20.7467C49.3326 20 51.1993 20.48 55.8926 23.4134C55.8926 21.6 55.8926 19.8934 55.8393 18.1334C55.8393 17.8667 55.5726 17.4934 55.3593 17.28C53.706 15.6267 51.6793 14.56 49.4393 13.8667C48.586 13.6 47.946 13.8667 47.5193 14.6667C46.5593 16.64 46.4526 18.6667 46.8793 20.7467ZM46.8794 30.0267C46.4527 28.0534 46.5594 26.1334 47.3594 24.2667C47.8927 23.0934 48.4261 22.88 49.6527 23.2534C51.7861 23.8934 53.7061 24.96 55.3061 26.56C55.6261 26.88 55.8394 27.36 55.8394 27.7867C55.8748 28.8495 55.8632 29.9122 55.8514 30.9906V30.9907V30.9907C55.8454 31.5358 55.8394 32.0849 55.8394 32.64C55.3599 32.3777 54.8881 32.0969 54.4177 31.817L54.4177 31.817C52.1151 30.4467 49.8466 29.0967 46.8794 30.0267ZM58.5593 59.8935C58.5593 59.8935 58.506 56.9601 58.506 54.7201C57.9015 54.7912 57.2971 54.8149 56.6927 54.8387C56.3904 54.8505 56.0882 54.8624 55.786 54.8801H55.8393C55.8926 55.2001 55.946 55.5735 55.946 55.8935V59.8935H58.5593Z" fill="#6FBA1F"/>
<path fill-rule="evenodd" clip-rule="evenodd" d="M45.28 32.7466L44.8 30.4533C44.2667 27.8933 44.48 25.5466 45.44 23.4133L45.28 23.4666L44.8 21.1733C44.32 18.8266 44.48 16.6933 45.1733 14.7733C45.0133 14.7733 44.8533 14.7199 44.6933 14.6666C44.6933 13.7535 44.6798 11.5421 44.6664 9.34682L44.6664 9.34445C44.6531 7.18089 44.64 5.03336 44.64 4.15993C41.1733 3.89326 33.44 3.99993 32.2133 4.31993C32.2133 4.63955 32.2148 5.27843 32.2168 6.13075C32.2267 10.3984 32.2489 20.0173 32.16 21.7066C31.7763 21.7066 31.405 21.7129 31.0442 21.7189H31.0441H31.0441C30.3518 21.7306 29.6977 21.7417 29.0667 21.7066C28.7297 21.6889 28.3927 21.7006 28.0537 21.7124C27.3734 21.7362 26.6853 21.7602 25.9733 21.5466V15.6266C25.12 15.1199 24.28 14.5999 23.44 14.0799C22.6 13.5599 21.76 13.0399 20.9067 12.5333C20.2979 12.9137 19.7028 13.2806 19.1139 13.6436L19.1139 13.6436L19.1139 13.6436C18.0518 14.2983 17.0103 14.9404 15.9467 15.6266C15.9238 17.2034 15.9303 18.7607 15.9369 20.3193V20.3193V20.3194C15.9456 22.3983 15.9543 24.4796 15.8933 26.6133H12L12.16 59.8399H18.9333V59.0933V58.8266L18.9867 58.5599C18.9867 58.5066 19 58.44 19.0133 58.3733L19.0133 58.3733C19.0267 58.3066 19.04 58.2399 19.04 58.1866C19.0487 58.1347 19.0573 58.0813 19.0662 58.0266C19.112 57.744 19.164 57.424 19.2533 57.0666C19.8933 54.6666 21.44 52.7466 23.7333 51.5199C24.5333 51.0933 25.3867 50.7199 26.1867 50.3999C26.3627 50.3217 26.5316 50.2506 26.6959 50.1815L26.696 50.1814C26.9797 50.062 27.2498 49.9483 27.52 49.8133L28.8 49.1733V48.7466C28.3445 48.2405 28.1771 47.7343 28.0701 47.4105L28.0533 47.3599L28 47.2533L27.9467 47.1999C27.7333 46.6133 27.52 46.1333 27.2533 45.7599C25.9733 44.1599 25.7067 42.1333 26.3467 40.2666C26.08 38.7733 25.8133 36.9599 26.1333 34.9866C26.8267 30.8799 29.7067 28.2133 33.8667 27.8399C34.2933 27.7866 34.72 27.7866 35.2 27.7866C36 27.7866 36.8533 27.8399 37.7067 27.9999C38.6434 28.1561 39.3263 28.5661 39.8543 28.8832L39.8933 28.9066C39.9558 28.9691 40.0366 29.0133 40.1035 29.0499C40.1509 29.0757 40.1912 29.0978 40.2133 29.1199C40.24 29.1466 40.2667 29.1599 40.2933 29.1733C40.32 29.1866 40.3467 29.1999 40.3733 29.2266C42.6667 29.9199 44.32 31.6799 44.96 34.0799C45.12 33.5999 45.28 33.1199 45.4933 32.6933L45.28 32.7466ZM63.1467 56.3732L61.3867 56.7999C61.28 56.8266 61.16 56.8399 61.04 56.8532L61.0399 56.8533C60.92 56.8666 60.8 56.8799 60.6934 56.9066V59.8933H68V52.9066C66.7734 54.5066 65.0667 55.7332 63.1467 56.3732ZM45.4933 41.9467C45.48 41.9867 45.4667 42.0267 45.44 42.08C44.96 43.4667 44.5333 45.1733 44.5333 46.9333C44.5333 48.2133 44.7467 49.44 45.12 50.5067C45.0667 50.48 45.0267 50.4667 44.9867 50.4533C44.9467 50.44 44.9067 50.4267 44.8533 50.4C44.32 50.1867 43.84 49.9733 43.4133 49.76C43.04 49.6 42.6667 49.44 42.3467 49.2267V49.0667V48.8533C42.5467 48.3333 42.8367 47.7233 43.1267 47.1133C43.2234 46.91 43.32 46.7067 43.4133 46.5067V46.4533C44.8533 44.96 45.44 42.4 44.8 40.4267C44.8 40.3733 44.8133 40.3333 44.8267 40.2933C44.84 40.2533 44.8533 40.2133 44.8533 40.16L45.2267 41.8667L45.5467 41.8133C45.52 41.8667 45.5067 41.9067 45.4933 41.9467Z" fill="#6FBA1F" fill-opacity="0.3"/>
</svg>
