<svg width="22" height="16" viewBox="0 0 22 16" fill="none" xmlns="http://www.w3.org/2000/svg">
<path fill-rule="evenodd" clip-rule="evenodd" d="M9.38599 4.35642C9.1543 4.2174 8.86573 4.21376 8.6306 4.34689C8.39547 4.48002 8.25012 4.72934 8.25012 4.99954V10.9995C8.25012 11.2697 8.39547 11.5191 8.6306 11.6522C8.86573 11.7853 9.1543 11.7817 9.38599 11.6427L14.386 8.64266C14.6119 8.50712 14.7501 8.26299 14.7501 7.99954C14.7501 7.7361 14.6119 7.49197 14.386 7.35642L9.38599 4.35642ZM12.5424 7.99954L9.75012 9.6749V6.32419L12.5424 7.99954Z" fill="#6FBA1F"/>
<path fill-rule="evenodd" clip-rule="evenodd" d="M16.0308 0.640823C12.6821 0.37884 9.31816 0.37884 5.96951 0.640823L3.72881 0.816125C2.36624 0.922726 1.25155 1.94393 1.02632 3.29197C0.505551 6.40875 0.505551 9.59033 1.02632 12.7071C1.25155 14.0552 2.36624 15.0764 3.72881 15.183L5.96951 15.3583C9.31815 15.6202 12.6821 15.6202 16.0308 15.3583L18.2715 15.183C19.6341 15.0764 20.7488 14.0552 20.974 12.7071C21.4948 9.59033 21.4948 6.40875 20.974 3.29197C20.7488 1.94393 19.6341 0.922726 18.2715 0.816125L16.0308 0.640823ZM6.0865 2.13625C9.35728 1.88036 12.643 1.88036 15.9138 2.13625L18.1545 2.31156C18.8301 2.36441 19.3828 2.87076 19.4945 3.53917C19.9879 6.49228 19.9879 9.5068 19.4945 12.4599C19.3828 13.1283 18.8301 13.6347 18.1545 13.6875L15.9138 13.8628C12.643 14.1187 9.35727 14.1187 6.0865 13.8628L3.8458 13.6875C3.17019 13.6347 2.61749 13.1283 2.50581 12.4599C2.01239 9.5068 2.01239 6.49228 2.50581 3.53917C2.61749 2.87076 3.17019 2.36441 3.8458 2.31156L6.0865 2.13625Z" fill="#6FBA1F"/>
</svg>
