<?xml version="1.0" encoding="utf-8"?>
<!-- Generator: Adobe Illustrator 23.1.0, SVG Export Plug-In . SVG Version: 6.00 Build 0)  -->
<svg version="1.1" id="print" xmlns="http://www.w3.org/2000/svg" xmlns:xlink="http://www.w3.org/1999/xlink" x="0px" y="0px"
	 viewBox="0 0 250 30" style="enable-background:new 0 0 250 30;" xml:space="preserve">
<path d="M28.6,5.2V0.7H0v28.6h28.6V11.1h-2.2l0.9-2.3C27.3,8.8,28.6,5.2,28.6,5.2z M27.4,12.3v15.8H1.2V1.9h26.2v3
	c0,0.7-0.6,1.1-1.5,1.1H9.8v17.8h9V12.3H27.4z M45.5,23.7h-2.6V5.9h10.3v2.3h-7.7v0.3V23.7z M61.3,9.6c3.1,0,5.6,1.6,5.6,5.2
	c0,2.9-2.2,5.4-5.6,5.4l-2.1,0.1v3.5h-2.8V9.6H61.3z M59.3,18h1.4c2.4,0,3.5-0.9,3.5-3.3c0-2.1-1.2-2.8-3.3-2.8h-1.6
	C59.3,11.9,59.3,18,59.3,18z M81,11.9h-6.2v3.7h4.8v2.2h-4.8v3.7h6.4v2.2H72V9.6h9V11.9z M117.8,23.8h-2.6v-5.9h-7.4v5.9h-2.6V9.6
	h2.6v6.1h7.4v-6h2.6V23.8z M203.8,9.5h2.6v10.2l7.8-10.2h2.5v14.1h-2.8V13.5l-7.6,10.2h-2.4V9.5z M86.4,9.6H89v10.2l7.8-10.2h2.5
	v14.1h-2.8V13.7l-7.6,10.1h-2.5L86.4,9.6z M235.4,23.7h-2.7v-5.9h-7.4v5.9h-2.6V9.6h2.6v6h7.4v-6h2.7V23.7z M156,9.4
	c4.4,0,7.6,3.1,7.6,7.3c0,3.8-3.2,7.2-7.6,7.2c-4.4,0-7.5-3.3-7.5-7.2C148.4,12.5,151.7,9.4,156,9.4 M156,21.6c3,0,4.8-2,4.8-4.9
	c0-3.1-2-4.9-4.8-4.9c-2.6,0-4.7,2-4.7,4.9S153,21.6,156,21.6z M179.6,9.6v14.1h-2.6V11.8h-4c0,0-0.6,5-0.9,7.4
	c-0.4,2.3-2.3,4.7-4.9,4.7c-0.3,0-0.7-0.1-0.9-0.1l-0.4-2.5l0.8,0.1c1.8,0,2.5-1.8,2.7-2.6c0.4-1.7,0.9-6.6,1.1-9.1L179.6,9.6
	L179.6,9.6z M184.9,21.4c1.8-2.5,2.7-4.5,2.7-10.3V9.6h9.6v11.9h1.5v6h-2.5v-3.7h-10v3.7h-2.5v-6L184.9,21.4L184.9,21.4z
	 M194.5,21.4v-9.5h-4.3v0.3c0,4.2-1.3,7.5-2.1,9.2H194.5L194.5,21.4z M244.2,23.7h-2.7V9.6h8.5v2.3h-5.8V23.7z M143.2,23.7l-5.2-7.1
	l-0.3-0.3l-5.2,7.4h-3.4l7.2-9.3l-0.3-0.3l-6.7-8.8h3.5l4.8,6.7l0.4,0.6l5.1-7.3h3.2l-6.9,9.3l0.2,0.2l6.9,8.9L143.2,23.7z
	 M96.1,6.7c0-0.4-1.5-0.8-3.3-0.8c-1.8,0-3.3,0.4-3.3,0.8c0,0.4,1.5,0.8,3.3,0.8C94.6,7.5,96.1,7.1,96.1,6.7"/>
</svg>
