<svg width="252" height="29" viewBox="0 0 252 29" fill="none" xmlns="http://www.w3.org/2000/svg">
<path d="M28.8545 4.52952V0H0V28.9634H28.8545V10.5264H26.63L27.5198 8.1659L28.8545 4.52952ZM27.5834 11.7385V27.6875H1.20757V1.21213H27.5834V4.27434C27.5834 4.9761 27.0113 5.42267 26.1216 5.42267H9.91475V23.477H18.9397V11.7385H27.5834ZM45.8875 23.2856H43.2182V5.23128H53.6414V7.59174H45.8875V7.91072V23.2856ZM61.8401 8.99525C64.9544 8.99525 67.4966 10.5902 67.4966 14.2903C67.4966 17.2249 65.2721 19.713 61.8401 19.713L59.7427 19.7768V23.3494H56.9463V8.99525H61.8401ZM59.7427 17.4801H61.141C63.5561 17.4801 64.6366 16.587 64.6366 14.1627C64.6366 11.9937 63.429 11.3557 61.3317 11.3557H59.7427V17.4801ZM81.606 11.3557H75.3776V15.1197H80.2078V17.3525H75.3776V21.0527H81.7967V23.2856H72.5811V8.99525H81.606V11.3557ZM118.786 23.3494H116.117V17.4163H108.681V23.3494H106.012V8.99525H108.681V15.1197H116.117V9.05905H118.786V23.3494ZM205.477 8.93145H208.083V19.2664L215.9 8.99525H218.442V23.2856H215.582V13.0144L207.892 23.2856H205.477V8.93145ZM87.0719 8.99525H89.7412V19.3302L97.5586 9.05905H100.101V23.3494H97.2409V13.142L89.5506 23.3494H87.0719V8.99525ZM237.255 23.2856H234.522V17.2887H227.086V23.2856H224.417V8.99525H227.086V15.0559H234.522V8.99525H237.255V23.2856ZM157.238 8.80386C161.687 8.80386 164.928 11.9299 164.928 16.2042C164.928 20.0958 161.75 23.477 157.238 23.477C152.852 23.477 149.675 20.1596 149.675 16.2042C149.611 11.9299 152.916 8.80386 157.238 8.80386ZM157.238 21.1165C160.225 21.1165 162.068 19.1388 162.068 16.2042C162.068 13.0782 160.098 11.2281 157.238 11.2281C154.568 11.2281 152.471 13.2696 152.471 16.2042C152.471 19.1388 154.251 21.1165 157.238 21.1165ZM181.008 8.99525V23.2856H178.338V11.2281H174.271C174.271 11.2281 173.699 16.3318 173.318 18.6923C172.873 21.0527 171.03 23.4132 168.36 23.4132C168.106 23.4132 167.661 23.3494 167.407 23.3494L166.962 20.7975L167.788 20.8613C169.568 20.8613 170.267 19.075 170.521 18.1819C170.966 16.4594 171.474 11.4833 171.665 8.99525H181.008ZM186.347 20.9251C188.126 18.4371 189.079 16.3956 189.079 10.5264V8.99525H198.74V20.9889H200.202V27.0495H197.723V23.3494H187.681V27.0495H185.139V20.9889H186.347V20.9251ZM196.071 20.9251V11.2919H191.749V11.6109C191.749 15.8852 190.478 19.2026 189.588 20.9251H196.071ZM246.153 23.2856H243.42V8.99525H252V11.2919H246.153V23.2856ZM144.336 23.2856L139.124 16.1404L138.87 15.8214L133.659 23.2856H130.226L137.472 13.8438L137.218 13.5248L130.417 4.65712H133.976L138.807 11.4833L139.251 12.0575L144.399 4.65712H147.641L140.713 14.0989L140.904 14.2903L147.832 23.2856H144.336ZM96.8595 6.06063C96.8595 5.61406 95.3342 5.23128 93.5546 5.23128C91.7115 5.23128 90.2497 5.61406 90.2497 6.06063C90.2497 6.5072 91.7115 6.88998 93.5546 6.88998C95.3977 6.88998 96.8595 6.5072 96.8595 6.06063Z" fill="#212529"/>
</svg>
